<svg width="1076" height="397" viewBox="0 0 1076 397" fill="none" xmlns="http://www.w3.org/2000/svg">
<rect x="444" y="127.57" width="14.039" height="16.909" fill="#D9D9D9"/>
<rect x="491.171" y="127.57" width="14.039" height="16.909" fill="#D9D9D9"/>
<rect x="475.447" y="127.57" width="14.039" height="16.909" fill="#D9D9D9"/>
<rect x="459.724" y="127.57" width="14.039" height="16.909" fill="#D9D9D9"/>
<rect x="569.79" y="127.57" width="14.039" height="16.909" fill="#D9D9D9"/>
<rect x="616.961" y="127.57" width="14.039" height="16.909" fill="#D9D9D9"/>
<rect x="601.237" y="127.57" width="14.039" height="16.909" fill="#D9D9D9"/>
<rect x="585.514" y="127.57" width="14.039" height="16.909" fill="#D9D9D9"/>
<rect x="506.895" y="127.57" width="14.039" height="16.909" fill="#D9D9D9"/>
<rect x="554.066" y="127.57" width="14.039" height="16.909" fill="#D9D9D9"/>
<rect x="538.342" y="127.57" width="14.039" height="16.909" fill="#D9D9D9"/>
<rect x="522.618" y="127.57" width="14.039" height="16.909" fill="#D9D9D9"/>
<rect x="444" y="146.733" width="14.039" height="16.909" fill="#D9D9D9"/>
<rect x="491.171" y="146.733" width="14.039" height="16.909" fill="#D9D9D9"/>
<rect x="475.447" y="146.733" width="14.039" height="16.909" fill="#D9D9D9"/>
<rect x="459.724" y="146.733" width="14.039" height="16.909" fill="#D9D9D9"/>
<rect x="569.79" y="146.733" width="14.039" height="16.909" fill="#D9D9D9"/>
<rect x="616.961" y="146.733" width="14.039" height="16.909" fill="#D9D9D9"/>
<rect x="601.237" y="146.733" width="14.039" height="16.909" fill="#D9D9D9"/>
<rect x="585.513" y="146.733" width="14.039" height="16.909" fill="#D9D9D9"/>
<rect x="506.895" y="146.733" width="14.039" height="16.909" fill="#D9D9D9"/>
<rect x="554.066" y="146.733" width="14.039" height="16.909" fill="#D9D9D9"/>
<rect x="538.342" y="146.733" width="14.039" height="16.909" fill="#D9D9D9"/>
<rect x="522.619" y="146.733" width="14.039" height="16.909" fill="#D9D9D9"/>
<rect x="444" y="165.897" width="14.039" height="16.909" fill="#D9D9D9"/>
<rect x="491.171" y="165.897" width="14.039" height="16.909" fill="#D9D9D9"/>
<rect x="475.447" y="165.897" width="14.039" height="16.909" fill="#D9D9D9"/>
<rect x="459.724" y="165.897" width="14.039" height="16.909" fill="#D9D9D9"/>
<rect x="569.79" y="165.897" width="14.039" height="16.909" fill="#D9D9D9"/>
<rect x="616.961" y="165.897" width="14.039" height="16.909" fill="#D9D9D9"/>
<rect x="601.237" y="165.897" width="14.039" height="16.909" fill="#D9D9D9"/>
<rect x="585.513" y="165.897" width="14.039" height="16.909" fill="#D9D9D9"/>
<rect x="506.895" y="165.897" width="14.039" height="16.909" fill="#D9D9D9"/>
<rect x="554.066" y="165.897" width="14.039" height="16.909" fill="#D9D9D9"/>
<rect x="538.342" y="165.897" width="14.039" height="16.909" fill="#D9D9D9"/>
<rect x="522.619" y="165.897" width="14.039" height="16.909" fill="#D9D9D9"/>
<rect x="444" y="185.061" width="14.039" height="16.909" fill="#D9D9D9"/>
<rect x="491.171" y="185.061" width="14.039" height="16.909" fill="#D9D9D9"/>
<rect x="475.447" y="185.061" width="14.039" height="16.909" fill="#D9D9D9"/>
<rect x="459.724" y="185.061" width="14.039" height="16.909" fill="#D9D9D9"/>
<rect x="569.79" y="185.061" width="14.039" height="16.909" fill="#D9D9D9"/>
<rect x="616.961" y="185.061" width="14.039" height="16.909" fill="#D9D9D9"/>
<rect x="601.237" y="185.061" width="14.039" height="16.909" fill="#D9D9D9"/>
<rect x="585.513" y="185.061" width="14.039" height="16.909" fill="#D9D9D9"/>
<rect x="506.895" y="185.061" width="14.039" height="16.909" fill="#D9D9D9"/>
<rect x="554.066" y="185.061" width="14.039" height="16.909" fill="#D9D9D9"/>
<rect x="538.342" y="185.061" width="14.039" height="16.909" fill="#D9D9D9"/>
<rect x="522.619" y="185.061" width="14.039" height="16.909" fill="#D9D9D9"/>
<rect x="444" y="204.224" width="14.039" height="16.909" fill="#D9D9D9"/>
<rect x="491.171" y="204.224" width="14.039" height="16.909" fill="#D9D9D9"/>
<rect x="475.447" y="204.224" width="14.039" height="16.909" fill="#D9D9D9"/>
<rect x="459.724" y="204.224" width="14.039" height="16.909" fill="#D9D9D9"/>
<rect x="569.79" y="204.224" width="14.039" height="16.909" fill="#D9D9D9"/>
<rect x="616.961" y="204.224" width="14.039" height="16.909" fill="#D9D9D9"/>
<rect x="601.237" y="204.224" width="14.039" height="16.909" fill="#D9D9D9"/>
<rect x="585.513" y="204.224" width="14.039" height="16.909" fill="#D9D9D9"/>
<rect x="506.895" y="204.224" width="14.039" height="16.909" fill="#D9D9D9"/>
<rect x="554.066" y="204.224" width="14.039" height="16.909" fill="#D9D9D9"/>
<rect x="538.342" y="204.224" width="14.039" height="16.909" fill="#D9D9D9"/>
<rect x="522.619" y="204.224" width="14.039" height="16.909" fill="#D9D9D9"/>
<rect x="444" y="223.387" width="14.039" height="16.909" fill="#D9D9D9"/>
<rect x="491.171" y="223.387" width="14.039" height="16.909" fill="#D9D9D9"/>
<rect x="475.447" y="223.387" width="14.039" height="16.909" fill="#D9D9D9"/>
<rect x="459.724" y="223.387" width="14.039" height="16.909" fill="#D9D9D9"/>
<rect x="569.79" y="223.387" width="14.039" height="16.909" fill="#D9D9D9"/>
<rect x="616.961" y="223.387" width="14.039" height="16.909" fill="#D9D9D9"/>
<rect x="601.237" y="223.387" width="14.039" height="16.909" fill="#D9D9D9"/>
<rect x="585.513" y="223.387" width="14.039" height="16.909" fill="#D9D9D9"/>
<rect x="506.895" y="223.387" width="14.039" height="16.909" fill="#D9D9D9"/>
<rect x="554.066" y="223.387" width="14.039" height="16.909" fill="#D9D9D9"/>
<rect x="538.342" y="223.387" width="14.039" height="16.909" fill="#D9D9D9"/>
<rect x="522.619" y="223.387" width="14.039" height="16.909" fill="#D9D9D9"/>
<rect x="444" y="242.551" width="14.039" height="16.909" fill="#D9D9D9"/>
<rect x="491.171" y="242.551" width="14.039" height="16.909" fill="#D9D9D9"/>
<rect x="475.447" y="242.551" width="14.039" height="16.909" fill="#D9D9D9"/>
<rect x="459.724" y="242.551" width="14.039" height="16.909" fill="#D9D9D9"/>
<rect x="569.79" y="242.551" width="14.039" height="16.909" fill="#D9D9D9"/>
<rect x="616.961" y="242.551" width="14.039" height="16.909" fill="#D9D9D9"/>
<rect x="601.237" y="242.551" width="14.039" height="16.909" fill="#D9D9D9"/>
<rect x="585.513" y="242.551" width="14.039" height="16.909" fill="#D9D9D9"/>
<rect x="506.895" y="242.551" width="14.039" height="16.909" fill="#D9D9D9"/>
<rect x="554.066" y="242.551" width="14.039" height="16.909" fill="#D9D9D9"/>
<rect x="538.342" y="242.551" width="14.039" height="16.909" fill="#D9D9D9"/>
<rect x="522.619" y="242.551" width="14.039" height="16.909" fill="#D9D9D9"/>
<rect x="444" y="261.715" width="14.039" height="16.909" fill="#D9D9D9"/>
<rect x="491.171" y="261.715" width="14.039" height="16.909" fill="#D9D9D9"/>
<rect x="475.447" y="261.715" width="14.039" height="16.909" fill="#D9D9D9"/>
<rect x="459.724" y="261.715" width="14.039" height="16.909" fill="#D9D9D9"/>
<rect x="569.79" y="261.715" width="14.039" height="16.909" fill="#D9D9D9"/>
<rect x="616.961" y="261.715" width="14.039" height="16.909" fill="#D9D9D9"/>
<rect x="601.237" y="261.715" width="14.039" height="16.909" fill="#D9D9D9"/>
<rect x="585.513" y="261.715" width="14.039" height="16.909" fill="#D9D9D9"/>
<rect x="506.895" y="261.715" width="14.039" height="16.909" fill="#D9D9D9"/>
<rect x="554.066" y="261.715" width="14.039" height="16.909" fill="#D9D9D9"/>
<rect x="538.342" y="261.715" width="14.039" height="16.909" fill="#D9D9D9"/>
<rect x="522.619" y="261.715" width="14.039" height="16.909" fill="#D9D9D9"/>
<rect x="444" y="280.878" width="14.039" height="16.909" fill="#D9D9D9"/>
<rect x="491.171" y="280.878" width="14.039" height="16.909" fill="#D9D9D9"/>
<rect x="475.447" y="280.878" width="14.039" height="16.909" fill="#D9D9D9"/>
<rect x="459.724" y="280.878" width="14.039" height="16.909" fill="#D9D9D9"/>
<rect x="569.79" y="280.878" width="14.039" height="16.909" fill="#D9D9D9"/>
<rect x="616.961" y="280.878" width="14.039" height="16.909" fill="#D9D9D9"/>
<rect x="601.237" y="280.878" width="14.039" height="16.909" fill="#D9D9D9"/>
<rect x="585.513" y="280.878" width="14.039" height="16.909" fill="#D9D9D9"/>
<rect x="506.895" y="280.878" width="14.039" height="16.909" fill="#D9D9D9"/>
<rect x="554.066" y="280.878" width="14.039" height="16.909" fill="#D9D9D9"/>
<rect x="538.342" y="280.878" width="14.039" height="16.909" fill="#D9D9D9"/>
<rect x="522.619" y="280.878" width="14.039" height="16.909" fill="#D9D9D9"/>
<rect x="444" y="300.042" width="14.039" height="16.909" fill="#D9D9D9"/>
<rect x="491.171" y="300.042" width="14.039" height="16.909" fill="#D9D9D9"/>
<rect x="475.447" y="300.042" width="14.039" height="16.909" fill="#D9D9D9"/>
<rect x="459.724" y="300.042" width="14.039" height="16.909" fill="#D9D9D9"/>
<rect x="569.79" y="300.042" width="14.039" height="16.909" fill="#D9D9D9"/>
<rect x="616.961" y="300.042" width="14.039" height="16.909" fill="#D9D9D9"/>
<rect x="601.237" y="300.042" width="14.039" height="16.909" fill="#D9D9D9"/>
<rect x="585.513" y="300.042" width="14.039" height="16.909" fill="#D9D9D9"/>
<rect x="506.895" y="300.042" width="14.039" height="16.909" fill="#D9D9D9"/>
<rect x="554.066" y="300.042" width="14.039" height="16.909" fill="#D9D9D9"/>
<rect x="538.342" y="300.042" width="14.039" height="16.909" fill="#D9D9D9"/>
<rect x="522.619" y="300.042" width="14.039" height="16.909" fill="#D9D9D9"/>
<rect x="444" y="319.205" width="14.039" height="16.909" fill="#D9D9D9"/>
<rect x="491.171" y="319.205" width="14.039" height="16.909" fill="#D9D9D9"/>
<rect x="475.447" y="319.205" width="14.039" height="16.909" fill="#D9D9D9"/>
<rect x="459.724" y="319.205" width="14.039" height="16.909" fill="#D9D9D9"/>
<rect x="569.79" y="319.205" width="14.039" height="16.909" fill="#D9D9D9"/>
<rect x="616.961" y="319.205" width="14.039" height="16.909" fill="#D9D9D9"/>
<rect x="601.237" y="319.205" width="14.039" height="16.909" fill="#D9D9D9"/>
<rect x="585.513" y="319.205" width="14.039" height="16.909" fill="#D9D9D9"/>
<rect x="506.895" y="319.205" width="14.039" height="16.909" fill="#D9D9D9"/>
<rect x="554.066" y="319.205" width="14.039" height="16.909" fill="#D9D9D9"/>
<rect x="538.342" y="319.205" width="14.039" height="16.909" fill="#D9D9D9"/>
<rect x="522.619" y="319.205" width="14.039" height="16.909" fill="#D9D9D9"/>
<rect x="444" y="338.369" width="14.039" height="16.909" fill="#D9D9D9"/>
<rect x="491.171" y="338.369" width="14.039" height="16.909" fill="#D9D9D9"/>
<rect x="475.447" y="338.369" width="14.039" height="16.909" fill="#D9D9D9"/>
<rect x="459.724" y="338.369" width="14.039" height="16.909" fill="#D9D9D9"/>
<rect x="569.79" y="338.369" width="14.039" height="16.909" fill="#D9D9D9"/>
<rect x="616.961" y="338.369" width="14.039" height="16.909" fill="#D9D9D9"/>
<rect x="601.237" y="338.369" width="14.039" height="16.909" fill="#D9D9D9"/>
<rect x="585.513" y="338.369" width="14.039" height="16.909" fill="#D9D9D9"/>
<rect x="506.895" y="338.369" width="14.039" height="16.909" fill="#D9D9D9"/>
<rect x="554.066" y="338.369" width="14.039" height="16.909" fill="#D9D9D9"/>
<rect x="538.342" y="338.369" width="14.039" height="16.909" fill="#D9D9D9"/>
<rect x="522.619" y="338.369" width="14.039" height="16.909" fill="#D9D9D9"/>
<rect x="444" y="357.532" width="14.039" height="16.909" fill="#D9D9D9"/>
<rect x="491.171" y="357.532" width="14.039" height="16.909" fill="#D9D9D9"/>
<rect x="475.447" y="357.532" width="14.039" height="16.909" fill="#D9D9D9"/>
<rect x="459.724" y="357.532" width="14.039" height="16.909" fill="#D9D9D9"/>
<rect x="569.79" y="357.532" width="14.039" height="16.909" fill="#D9D9D9"/>
<rect x="616.961" y="357.532" width="14.039" height="16.909" fill="#D9D9D9"/>
<rect x="601.237" y="357.532" width="14.039" height="16.909" fill="#D9D9D9"/>
<rect x="585.513" y="357.532" width="14.039" height="16.909" fill="#D9D9D9"/>
<rect x="506.895" y="357.532" width="14.039" height="16.909" fill="#D9D9D9"/>
<rect x="554.066" y="357.532" width="14.039" height="16.909" fill="#D9D9D9"/>
<rect x="538.342" y="357.532" width="14.039" height="16.909" fill="#D9D9D9"/>
<rect x="522.619" y="357.532" width="14.039" height="16.909" fill="#D9D9D9"/>
<rect x="236" y="127.57" width="14.039" height="16.909" fill="#D9D9D9"/>
<rect x="283.171" y="127.57" width="14.039" height="16.909" fill="#D9D9D9"/>
<rect x="267.447" y="127.57" width="14.039" height="16.909" fill="#D9D9D9"/>
<rect x="251.724" y="127.57" width="14.039" height="16.909" fill="#D9D9D9"/>
<rect x="361.79" y="127.57" width="14.039" height="16.909" fill="#D9D9D9"/>
<rect x="408.961" y="127.57" width="14.039" height="16.909" fill="#D9D9D9"/>
<rect x="393.237" y="127.57" width="14.039" height="16.909" fill="#D9D9D9"/>
<rect x="377.514" y="127.57" width="14.039" height="16.909" fill="#D9D9D9"/>
<rect x="298.895" y="127.57" width="14.039" height="16.909" fill="#D9D9D9"/>
<rect x="346.066" y="127.57" width="14.039" height="16.909" fill="#D9D9D9"/>
<rect x="330.342" y="127.57" width="14.039" height="16.909" fill="#D9D9D9"/>
<rect x="314.618" y="127.57" width="14.039" height="16.909" fill="#D9D9D9"/>
<rect x="236" y="146.733" width="14.039" height="16.909" fill="#D9D9D9"/>
<rect x="283.171" y="146.733" width="14.039" height="16.909" fill="#D9D9D9"/>
<rect x="267.447" y="146.733" width="14.039" height="16.909" fill="#D9D9D9"/>
<rect x="251.724" y="146.733" width="14.039" height="16.909" fill="#D9D9D9"/>
<rect x="361.79" y="146.733" width="14.039" height="16.909" fill="#D9D9D9"/>
<rect x="408.961" y="146.733" width="14.039" height="16.909" fill="#D9D9D9"/>
<rect x="393.237" y="146.733" width="14.039" height="16.909" fill="#D9D9D9"/>
<rect x="377.513" y="146.733" width="14.039" height="16.909" fill="#D9D9D9"/>
<rect x="298.895" y="146.733" width="14.039" height="16.909" fill="#D9D9D9"/>
<rect x="346.066" y="146.733" width="14.039" height="16.909" fill="#D9D9D9"/>
<rect x="330.342" y="146.733" width="14.039" height="16.909" fill="#D9D9D9"/>
<rect x="314.619" y="146.733" width="14.039" height="16.909" fill="#D9D9D9"/>
<rect x="236" y="165.897" width="14.039" height="16.909" fill="#D9D9D9"/>
<rect x="283.171" y="165.897" width="14.039" height="16.909" fill="#D9D9D9"/>
<rect x="267.447" y="165.897" width="14.039" height="16.909" fill="#D9D9D9"/>
<rect x="251.724" y="165.897" width="14.039" height="16.909" fill="#D9D9D9"/>
<rect x="361.79" y="165.897" width="14.039" height="16.909" fill="#D9D9D9"/>
<rect x="408.961" y="165.897" width="14.039" height="16.909" fill="#D9D9D9"/>
<rect x="393.237" y="165.897" width="14.039" height="16.909" fill="#D9D9D9"/>
<rect x="377.513" y="165.897" width="14.039" height="16.909" fill="#D9D9D9"/>
<rect x="298.895" y="165.897" width="14.039" height="16.909" fill="#D9D9D9"/>
<rect x="346.066" y="165.897" width="14.039" height="16.909" fill="#D9D9D9"/>
<rect x="330.342" y="165.897" width="14.039" height="16.909" fill="#D9D9D9"/>
<rect x="314.619" y="165.897" width="14.039" height="16.909" fill="#D9D9D9"/>
<rect x="236" y="185.061" width="14.039" height="16.909" fill="#D9D9D9"/>
<rect x="283.171" y="185.061" width="14.039" height="16.909" fill="#D9D9D9"/>
<rect x="267.447" y="185.061" width="14.039" height="16.909" fill="#D9D9D9"/>
<rect x="251.724" y="185.061" width="14.039" height="16.909" fill="#D9D9D9"/>
<rect x="361.79" y="185.061" width="14.039" height="16.909" fill="#D9D9D9"/>
<rect x="408.961" y="185.061" width="14.039" height="16.909" fill="#D9D9D9"/>
<rect x="393.237" y="185.061" width="14.039" height="16.909" fill="#D9D9D9"/>
<rect x="377.513" y="185.061" width="14.039" height="16.909" fill="#D9D9D9"/>
<rect x="298.895" y="185.061" width="14.039" height="16.909" fill="#D9D9D9"/>
<rect x="346.066" y="185.061" width="14.039" height="16.909" fill="#D9D9D9"/>
<rect x="330.342" y="185.061" width="14.039" height="16.909" fill="#D9D9D9"/>
<rect x="314.619" y="185.061" width="14.039" height="16.909" fill="#D9D9D9"/>
<rect x="236" y="204.224" width="14.039" height="16.909" fill="#D9D9D9"/>
<rect x="283.171" y="204.224" width="14.039" height="16.909" fill="#D9D9D9"/>
<rect x="267.447" y="204.224" width="14.039" height="16.909" fill="#D9D9D9"/>
<rect x="251.724" y="204.224" width="14.039" height="16.909" fill="#D9D9D9"/>
<rect x="361.79" y="204.224" width="14.039" height="16.909" fill="#D9D9D9"/>
<rect x="408.961" y="204.224" width="14.039" height="16.909" fill="#D9D9D9"/>
<rect x="393.237" y="204.224" width="14.039" height="16.909" fill="#D9D9D9"/>
<rect x="377.513" y="204.224" width="14.039" height="16.909" fill="#D9D9D9"/>
<rect x="298.895" y="204.224" width="14.039" height="16.909" fill="#D9D9D9"/>
<rect x="346.066" y="204.224" width="14.039" height="16.909" fill="#D9D9D9"/>
<rect x="330.342" y="204.224" width="14.039" height="16.909" fill="#D9D9D9"/>
<rect x="314.619" y="204.224" width="14.039" height="16.909" fill="#D9D9D9"/>
<rect x="236" y="223.387" width="14.039" height="16.909" fill="#D9D9D9"/>
<rect x="283.171" y="223.387" width="14.039" height="16.909" fill="#D9D9D9"/>
<rect x="267.447" y="223.387" width="14.039" height="16.909" fill="#D9D9D9"/>
<rect x="251.724" y="223.387" width="14.039" height="16.909" fill="#D9D9D9"/>
<rect x="361.79" y="223.387" width="14.039" height="16.909" fill="#D9D9D9"/>
<rect x="408.961" y="223.387" width="14.039" height="16.909" fill="#D9D9D9"/>
<rect x="393.237" y="223.387" width="14.039" height="16.909" fill="#D9D9D9"/>
<rect x="377.513" y="223.387" width="14.039" height="16.909" fill="#D9D9D9"/>
<rect x="298.895" y="223.387" width="14.039" height="16.909" fill="#D9D9D9"/>
<rect x="346.066" y="223.387" width="14.039" height="16.909" fill="#D9D9D9"/>
<rect x="330.342" y="223.387" width="14.039" height="16.909" fill="#D9D9D9"/>
<rect x="314.619" y="223.387" width="14.039" height="16.909" fill="#D9D9D9"/>
<rect x="236" y="242.551" width="14.039" height="16.909" fill="#D9D9D9"/>
<rect x="283.171" y="242.551" width="14.039" height="16.909" fill="#D9D9D9"/>
<rect x="267.447" y="242.551" width="14.039" height="16.909" fill="#D9D9D9"/>
<rect x="251.724" y="242.551" width="14.039" height="16.909" fill="#D9D9D9"/>
<rect x="361.79" y="242.551" width="14.039" height="16.909" fill="#D9D9D9"/>
<rect x="408.961" y="242.551" width="14.039" height="16.909" fill="#D9D9D9"/>
<rect x="393.237" y="242.551" width="14.039" height="16.909" fill="#D9D9D9"/>
<rect x="377.513" y="242.551" width="14.039" height="16.909" fill="#D9D9D9"/>
<rect x="298.895" y="242.551" width="14.039" height="16.909" fill="#D9D9D9"/>
<rect x="346.066" y="242.551" width="14.039" height="16.909" fill="#D9D9D9"/>
<rect x="330.342" y="242.551" width="14.039" height="16.909" fill="#D9D9D9"/>
<rect x="314.619" y="242.551" width="14.039" height="16.909" fill="#D9D9D9"/>
<rect x="236" y="261.715" width="14.039" height="16.909" fill="#D9D9D9"/>
<rect x="283.171" y="261.715" width="14.039" height="16.909" fill="#D9D9D9"/>
<rect x="267.447" y="261.715" width="14.039" height="16.909" fill="#D9D9D9"/>
<rect x="251.724" y="261.715" width="14.039" height="16.909" fill="#D9D9D9"/>
<rect x="361.79" y="261.715" width="14.039" height="16.909" fill="#D9D9D9"/>
<rect x="408.961" y="261.715" width="14.039" height="16.909" fill="#D9D9D9"/>
<rect x="393.237" y="261.715" width="14.039" height="16.909" fill="#D9D9D9"/>
<rect x="377.513" y="261.715" width="14.039" height="16.909" fill="#D9D9D9"/>
<rect x="298.895" y="261.715" width="14.039" height="16.909" fill="#D9D9D9"/>
<rect x="346.066" y="261.715" width="14.039" height="16.909" fill="#D9D9D9"/>
<rect x="330.342" y="261.715" width="14.039" height="16.909" fill="#D9D9D9"/>
<rect x="314.619" y="261.715" width="14.039" height="16.909" fill="#D9D9D9"/>
<rect x="236" y="280.878" width="14.039" height="16.909" fill="#D9D9D9"/>
<rect x="283.171" y="280.878" width="14.039" height="16.909" fill="#D9D9D9"/>
<rect x="267.447" y="280.878" width="14.039" height="16.909" fill="#D9D9D9"/>
<rect x="251.724" y="280.878" width="14.039" height="16.909" fill="#D9D9D9"/>
<rect x="361.79" y="280.878" width="14.039" height="16.909" fill="#D9D9D9"/>
<rect x="408.961" y="280.878" width="14.039" height="16.909" fill="#D9D9D9"/>
<rect x="393.237" y="280.878" width="14.039" height="16.909" fill="#D9D9D9"/>
<rect x="377.513" y="280.878" width="14.039" height="16.909" fill="#D9D9D9"/>
<rect x="298.895" y="280.878" width="14.039" height="16.909" fill="#D9D9D9"/>
<rect x="346.066" y="280.878" width="14.039" height="16.909" fill="#D9D9D9"/>
<rect x="330.342" y="280.878" width="14.039" height="16.909" fill="#D9D9D9"/>
<rect x="314.619" y="280.878" width="14.039" height="16.909" fill="#D9D9D9"/>
<rect x="236" y="300.042" width="14.039" height="16.909" fill="#D9D9D9"/>
<rect x="283.171" y="300.042" width="14.039" height="16.909" fill="#D9D9D9"/>
<rect x="267.447" y="300.042" width="14.039" height="16.909" fill="#D9D9D9"/>
<rect x="251.724" y="300.042" width="14.039" height="16.909" fill="#D9D9D9"/>
<rect x="361.79" y="300.042" width="14.039" height="16.909" fill="#D9D9D9"/>
<rect x="408.961" y="300.042" width="14.039" height="16.909" fill="#D9D9D9"/>
<rect x="393.237" y="300.042" width="14.039" height="16.909" fill="#D9D9D9"/>
<rect x="377.513" y="300.042" width="14.039" height="16.909" fill="#D9D9D9"/>
<rect x="298.895" y="300.042" width="14.039" height="16.909" fill="#D9D9D9"/>
<rect x="346.066" y="300.042" width="14.039" height="16.909" fill="#D9D9D9"/>
<rect x="330.342" y="300.042" width="14.039" height="16.909" fill="#D9D9D9"/>
<rect x="314.619" y="300.042" width="14.039" height="16.909" fill="#D9D9D9"/>
<rect x="236" y="319.205" width="14.039" height="16.909" fill="#D9D9D9"/>
<rect x="283.171" y="319.205" width="14.039" height="16.909" fill="#D9D9D9"/>
<rect x="267.447" y="319.205" width="14.039" height="16.909" fill="#D9D9D9"/>
<rect x="251.724" y="319.205" width="14.039" height="16.909" fill="#D9D9D9"/>
<rect x="361.79" y="319.205" width="14.039" height="16.909" fill="#D9D9D9"/>
<rect x="408.961" y="319.205" width="14.039" height="16.909" fill="#D9D9D9"/>
<rect x="393.237" y="319.205" width="14.039" height="16.909" fill="#D9D9D9"/>
<rect x="377.513" y="319.205" width="14.039" height="16.909" fill="#D9D9D9"/>
<rect x="298.895" y="319.205" width="14.039" height="16.909" fill="#D9D9D9"/>
<rect x="346.066" y="319.205" width="14.039" height="16.909" fill="#D9D9D9"/>
<rect x="330.342" y="319.205" width="14.039" height="16.909" fill="#D9D9D9"/>
<rect x="314.619" y="319.205" width="14.039" height="16.909" fill="#D9D9D9"/>
<rect x="236" y="338.369" width="14.039" height="16.909" fill="#D9D9D9"/>
<rect x="283.171" y="338.369" width="14.039" height="16.909" fill="#D9D9D9"/>
<rect x="267.447" y="338.369" width="14.039" height="16.909" fill="#D9D9D9"/>
<rect x="251.724" y="338.369" width="14.039" height="16.909" fill="#D9D9D9"/>
<rect x="361.79" y="338.369" width="14.039" height="16.909" fill="#D9D9D9"/>
<rect x="408.961" y="338.369" width="14.039" height="16.909" fill="#D9D9D9"/>
<rect x="393.237" y="338.369" width="14.039" height="16.909" fill="#D9D9D9"/>
<rect x="377.513" y="338.369" width="14.039" height="16.909" fill="#D9D9D9"/>
<rect x="298.895" y="338.369" width="14.039" height="16.909" fill="#D9D9D9"/>
<rect x="346.066" y="338.369" width="14.039" height="16.909" fill="#D9D9D9"/>
<rect x="330.342" y="338.369" width="14.039" height="16.909" fill="#D9D9D9"/>
<rect x="314.619" y="338.369" width="14.039" height="16.909" fill="#D9D9D9"/>
<rect x="236" y="357.532" width="14.039" height="16.909" fill="#D9D9D9"/>
<rect x="283.171" y="357.532" width="14.039" height="16.909" fill="#D9D9D9"/>
<rect x="267.447" y="357.532" width="14.039" height="16.909" fill="#D9D9D9"/>
<rect x="251.724" y="357.532" width="14.039" height="16.909" fill="#D9D9D9"/>
<rect x="361.79" y="357.532" width="14.039" height="16.909" fill="#D9D9D9"/>
<rect x="408.961" y="357.532" width="14.039" height="16.909" fill="#D9D9D9"/>
<rect x="393.237" y="357.532" width="14.039" height="16.909" fill="#D9D9D9"/>
<rect x="377.513" y="357.532" width="14.039" height="16.909" fill="#D9D9D9"/>
<rect x="298.895" y="357.532" width="14.039" height="16.909" fill="#D9D9D9"/>
<rect x="346.066" y="357.532" width="14.039" height="16.909" fill="#D9D9D9"/>
<rect x="330.342" y="357.532" width="14.039" height="16.909" fill="#D9D9D9"/>
<rect x="314.619" y="357.532" width="14.039" height="16.909" fill="#D9D9D9"/>
<rect x="652" y="127.57" width="14.039" height="16.909" fill="#D9D9D9"/>
<rect x="699.171" y="127.57" width="14.039" height="16.909" fill="#D9D9D9"/>
<rect x="683.447" y="127.57" width="14.039" height="16.909" fill="#D9D9D9"/>
<rect x="667.724" y="127.57" width="14.039" height="16.909" fill="#D9D9D9"/>
<rect x="777.79" y="127.57" width="14.039" height="16.909" fill="#D9D9D9"/>
<rect x="824.961" y="127.57" width="14.039" height="16.909" fill="#D9D9D9"/>
<rect x="809.237" y="127.57" width="14.039" height="16.909" fill="#D9D9D9"/>
<rect x="793.514" y="127.57" width="14.039" height="16.909" fill="#D9D9D9"/>
<rect x="714.895" y="127.57" width="14.039" height="16.909" fill="#D9D9D9"/>
<rect x="762.066" y="127.57" width="14.039" height="16.909" fill="#D9D9D9"/>
<rect x="746.342" y="127.57" width="14.039" height="16.909" fill="#D9D9D9"/>
<rect x="730.618" y="127.57" width="14.039" height="16.909" fill="#D9D9D9"/>
<rect x="652" y="146.733" width="14.039" height="16.909" fill="#D9D9D9"/>
<rect x="699.171" y="146.733" width="14.039" height="16.909" fill="#D9D9D9"/>
<rect x="683.447" y="146.733" width="14.039" height="16.909" fill="#D9D9D9"/>
<rect x="667.724" y="146.733" width="14.039" height="16.909" fill="#D9D9D9"/>
<rect x="777.79" y="146.733" width="14.039" height="16.909" fill="#D9D9D9"/>
<rect x="824.961" y="146.733" width="14.039" height="16.909" fill="#D9D9D9"/>
<rect x="809.237" y="146.733" width="14.039" height="16.909" fill="#D9D9D9"/>
<rect x="793.513" y="146.733" width="14.039" height="16.909" fill="#D9D9D9"/>
<rect x="714.895" y="146.733" width="14.039" height="16.909" fill="#D9D9D9"/>
<rect x="762.066" y="146.733" width="14.039" height="16.909" fill="#D9D9D9"/>
<rect x="746.342" y="146.733" width="14.039" height="16.909" fill="#D9D9D9"/>
<rect x="730.619" y="146.733" width="14.039" height="16.909" fill="#D9D9D9"/>
<rect x="652" y="165.897" width="14.039" height="16.909" fill="#D9D9D9"/>
<rect x="699.171" y="165.897" width="14.039" height="16.909" fill="#D9D9D9"/>
<rect x="683.447" y="165.897" width="14.039" height="16.909" fill="#D9D9D9"/>
<rect x="667.724" y="165.897" width="14.039" height="16.909" fill="#D9D9D9"/>
<rect x="777.79" y="165.897" width="14.039" height="16.909" fill="#D9D9D9"/>
<rect x="824.961" y="165.897" width="14.039" height="16.909" fill="#D9D9D9"/>
<rect x="809.237" y="165.897" width="14.039" height="16.909" fill="#D9D9D9"/>
<rect x="793.513" y="165.897" width="14.039" height="16.909" fill="#D9D9D9"/>
<rect x="714.895" y="165.897" width="14.039" height="16.909" fill="#D9D9D9"/>
<rect x="762.066" y="165.897" width="14.039" height="16.909" fill="#D9D9D9"/>
<rect x="746.342" y="165.897" width="14.039" height="16.909" fill="#D9D9D9"/>
<rect x="730.619" y="165.897" width="14.039" height="16.909" fill="#D9D9D9"/>
<rect x="652" y="185.061" width="14.039" height="16.909" fill="#D9D9D9"/>
<rect x="699.171" y="185.061" width="14.039" height="16.909" fill="#D9D9D9"/>
<rect x="683.447" y="185.061" width="14.039" height="16.909" fill="#D9D9D9"/>
<rect x="667.724" y="185.061" width="14.039" height="16.909" fill="#D9D9D9"/>
<rect x="777.79" y="185.061" width="14.039" height="16.909" fill="#D9D9D9"/>
<rect x="824.961" y="185.061" width="14.039" height="16.909" fill="#D9D9D9"/>
<rect x="809.237" y="185.061" width="14.039" height="16.909" fill="#D9D9D9"/>
<rect x="793.513" y="185.061" width="14.039" height="16.909" fill="#D9D9D9"/>
<rect x="714.895" y="185.061" width="14.039" height="16.909" fill="#D9D9D9"/>
<rect x="762.066" y="185.061" width="14.039" height="16.909" fill="#D9D9D9"/>
<rect x="746.342" y="185.061" width="14.039" height="16.909" fill="#D9D9D9"/>
<rect x="730.619" y="185.061" width="14.039" height="16.909" fill="#D9D9D9"/>
<rect x="652" y="204.224" width="14.039" height="16.909" fill="#D9D9D9"/>
<rect x="699.171" y="204.224" width="14.039" height="16.909" fill="#D9D9D9"/>
<rect x="683.447" y="204.224" width="14.039" height="16.909" fill="#D9D9D9"/>
<rect x="667.724" y="204.224" width="14.039" height="16.909" fill="#D9D9D9"/>
<rect x="777.79" y="204.224" width="14.039" height="16.909" fill="#D9D9D9"/>
<rect x="824.961" y="204.224" width="14.039" height="16.909" fill="#D9D9D9"/>
<rect x="809.237" y="204.224" width="14.039" height="16.909" fill="#D9D9D9"/>
<rect x="793.513" y="204.224" width="14.039" height="16.909" fill="#D9D9D9"/>
<rect x="714.895" y="204.224" width="14.039" height="16.909" fill="#D9D9D9"/>
<rect x="762.066" y="204.224" width="14.039" height="16.909" fill="#D9D9D9"/>
<rect x="746.342" y="204.224" width="14.039" height="16.909" fill="#D9D9D9"/>
<rect x="730.619" y="204.224" width="14.039" height="16.909" fill="#D9D9D9"/>
<rect x="652" y="223.387" width="14.039" height="16.909" fill="#D9D9D9"/>
<rect x="699.171" y="223.387" width="14.039" height="16.909" fill="#D9D9D9"/>
<rect x="683.447" y="223.387" width="14.039" height="16.909" fill="#D9D9D9"/>
<rect x="667.724" y="223.387" width="14.039" height="16.909" fill="#D9D9D9"/>
<rect x="777.79" y="223.387" width="14.039" height="16.909" fill="#D9D9D9"/>
<rect x="824.961" y="223.387" width="14.039" height="16.909" fill="#D9D9D9"/>
<rect x="809.237" y="223.387" width="14.039" height="16.909" fill="#D9D9D9"/>
<rect x="793.513" y="223.387" width="14.039" height="16.909" fill="#D9D9D9"/>
<rect x="714.895" y="223.387" width="14.039" height="16.909" fill="#D9D9D9"/>
<rect x="762.066" y="223.387" width="14.039" height="16.909" fill="#D9D9D9"/>
<rect x="746.342" y="223.387" width="14.039" height="16.909" fill="#D9D9D9"/>
<rect x="730.619" y="223.387" width="14.039" height="16.909" fill="#D9D9D9"/>
<rect x="652" y="242.551" width="14.039" height="16.909" fill="#D9D9D9"/>
<rect x="699.171" y="242.551" width="14.039" height="16.909" fill="#D9D9D9"/>
<rect x="683.447" y="242.551" width="14.039" height="16.909" fill="#D9D9D9"/>
<rect x="667.724" y="242.551" width="14.039" height="16.909" fill="#D9D9D9"/>
<rect x="777.79" y="242.551" width="14.039" height="16.909" fill="#D9D9D9"/>
<rect x="824.961" y="242.551" width="14.039" height="16.909" fill="#D9D9D9"/>
<rect x="809.237" y="242.551" width="14.039" height="16.909" fill="#D9D9D9"/>
<rect x="793.513" y="242.551" width="14.039" height="16.909" fill="#D9D9D9"/>
<rect x="714.895" y="242.551" width="14.039" height="16.909" fill="#D9D9D9"/>
<rect x="762.066" y="242.551" width="14.039" height="16.909" fill="#D9D9D9"/>
<rect x="746.342" y="242.551" width="14.039" height="16.909" fill="#D9D9D9"/>
<rect x="730.619" y="242.551" width="14.039" height="16.909" fill="#D9D9D9"/>
<rect x="652" y="261.715" width="14.039" height="16.909" fill="#D9D9D9"/>
<rect x="699.171" y="261.715" width="14.039" height="16.909" fill="#D9D9D9"/>
<rect x="683.447" y="261.715" width="14.039" height="16.909" fill="#D9D9D9"/>
<rect x="667.724" y="261.715" width="14.039" height="16.909" fill="#D9D9D9"/>
<rect x="777.79" y="261.715" width="14.039" height="16.909" fill="#D9D9D9"/>
<rect x="824.961" y="261.715" width="14.039" height="16.909" fill="#D9D9D9"/>
<rect x="809.237" y="261.715" width="14.039" height="16.909" fill="#D9D9D9"/>
<rect x="793.513" y="261.715" width="14.039" height="16.909" fill="#D9D9D9"/>
<rect x="714.895" y="261.715" width="14.039" height="16.909" fill="#D9D9D9"/>
<rect x="762.066" y="261.715" width="14.039" height="16.909" fill="#D9D9D9"/>
<rect x="746.342" y="261.715" width="14.039" height="16.909" fill="#D9D9D9"/>
<rect x="730.619" y="261.715" width="14.039" height="16.909" fill="#D9D9D9"/>
<rect x="652" y="280.878" width="14.039" height="16.909" fill="#D9D9D9"/>
<rect x="699.171" y="280.878" width="14.039" height="16.909" fill="#D9D9D9"/>
<rect x="683.447" y="280.878" width="14.039" height="16.909" fill="#D9D9D9"/>
<rect x="667.724" y="280.878" width="14.039" height="16.909" fill="#D9D9D9"/>
<rect x="777.79" y="280.878" width="14.039" height="16.909" fill="#D9D9D9"/>
<rect x="824.961" y="280.878" width="14.039" height="16.909" fill="#D9D9D9"/>
<rect x="809.237" y="280.878" width="14.039" height="16.909" fill="#D9D9D9"/>
<rect x="793.513" y="280.878" width="14.039" height="16.909" fill="#D9D9D9"/>
<rect x="714.895" y="280.878" width="14.039" height="16.909" fill="#D9D9D9"/>
<rect x="762.066" y="280.878" width="14.039" height="16.909" fill="#D9D9D9"/>
<rect x="746.342" y="280.878" width="14.039" height="16.909" fill="#D9D9D9"/>
<rect x="730.619" y="280.878" width="14.039" height="16.909" fill="#D9D9D9"/>
<rect x="652" y="300.042" width="14.039" height="16.909" fill="#D9D9D9"/>
<rect x="699.171" y="300.042" width="14.039" height="16.909" fill="#D9D9D9"/>
<rect x="683.447" y="300.042" width="14.039" height="16.909" fill="#D9D9D9"/>
<rect x="667.724" y="300.042" width="14.039" height="16.909" fill="#D9D9D9"/>
<rect x="777.79" y="300.042" width="14.039" height="16.909" fill="#D9D9D9"/>
<rect x="824.961" y="300.042" width="14.039" height="16.909" fill="#D9D9D9"/>
<rect x="809.237" y="300.042" width="14.039" height="16.909" fill="#D9D9D9"/>
<rect x="793.513" y="300.042" width="14.039" height="16.909" fill="#D9D9D9"/>
<rect x="714.895" y="300.042" width="14.039" height="16.909" fill="#D9D9D9"/>
<rect x="762.066" y="300.042" width="14.039" height="16.909" fill="#D9D9D9"/>
<rect x="746.342" y="300.042" width="14.039" height="16.909" fill="#D9D9D9"/>
<rect x="730.619" y="300.042" width="14.039" height="16.909" fill="#D9D9D9"/>
<rect x="652" y="319.205" width="14.039" height="16.909" fill="#D9D9D9"/>
<rect x="699.171" y="319.205" width="14.039" height="16.909" fill="#D9D9D9"/>
<rect x="683.447" y="319.205" width="14.039" height="16.909" fill="#D9D9D9"/>
<rect x="667.724" y="319.205" width="14.039" height="16.909" fill="#D9D9D9"/>
<rect x="777.79" y="319.205" width="14.039" height="16.909" fill="#D9D9D9"/>
<rect x="824.961" y="319.205" width="14.039" height="16.909" fill="#D9D9D9"/>
<rect x="809.237" y="319.205" width="14.039" height="16.909" fill="#D9D9D9"/>
<rect x="793.513" y="319.205" width="14.039" height="16.909" fill="#D9D9D9"/>
<rect x="714.895" y="319.205" width="14.039" height="16.909" fill="#D9D9D9"/>
<rect x="762.066" y="319.205" width="14.039" height="16.909" fill="#D9D9D9"/>
<rect x="746.342" y="319.205" width="14.039" height="16.909" fill="#D9D9D9"/>
<rect x="730.619" y="319.205" width="14.039" height="16.909" fill="#D9D9D9"/>
<rect x="652" y="338.369" width="14.039" height="16.909" fill="#D9D9D9"/>
<rect x="699.171" y="338.369" width="14.039" height="16.909" fill="#D9D9D9"/>
<rect x="683.447" y="338.369" width="14.039" height="16.909" fill="#D9D9D9"/>
<rect x="667.724" y="338.369" width="14.039" height="16.909" fill="#D9D9D9"/>
<rect x="777.79" y="338.369" width="14.039" height="16.909" fill="#D9D9D9"/>
<rect x="824.961" y="338.369" width="14.039" height="16.909" fill="#D9D9D9"/>
<rect x="809.237" y="338.369" width="14.039" height="16.909" fill="#D9D9D9"/>
<rect x="793.513" y="338.369" width="14.039" height="16.909" fill="#D9D9D9"/>
<rect x="714.895" y="338.369" width="14.039" height="16.909" fill="#D9D9D9"/>
<rect x="762.066" y="338.369" width="14.039" height="16.909" fill="#D9D9D9"/>
<rect x="746.342" y="338.369" width="14.039" height="16.909" fill="#D9D9D9"/>
<rect x="730.619" y="338.369" width="14.039" height="16.909" fill="#D9D9D9"/>
<rect x="652" y="357.532" width="14.039" height="16.909" fill="#D9D9D9"/>
<rect x="699.171" y="357.532" width="14.039" height="16.909" fill="#D9D9D9"/>
<rect x="683.447" y="357.532" width="14.039" height="16.909" fill="#D9D9D9"/>
<rect x="667.724" y="357.532" width="14.039" height="16.909" fill="#D9D9D9"/>
<rect x="777.79" y="357.532" width="14.039" height="16.909" fill="#D9D9D9"/>
<rect x="824.961" y="357.532" width="14.039" height="16.909" fill="#D9D9D9"/>
<rect x="809.237" y="357.532" width="14.039" height="16.909" fill="#D9D9D9"/>
<rect x="793.513" y="357.532" width="14.039" height="16.909" fill="#D9D9D9"/>
<rect x="714.895" y="357.532" width="14.039" height="16.909" fill="#D9D9D9"/>
<rect x="762.066" y="357.532" width="14.039" height="16.909" fill="#D9D9D9"/>
<rect x="746.342" y="357.532" width="14.039" height="16.909" fill="#D9D9D9"/>
<rect x="730.619" y="357.532" width="14.039" height="16.909" fill="#D9D9D9"/>
<rect width="14.6092" height="16.3992" transform="matrix(0.854308 -0.519767 0.39971 0.916642 860 175.257)" fill="#D9D9D9"/>
<rect width="14.6092" height="16.3992" transform="matrix(0.854308 -0.519767 0.39971 0.916642 901.935 149.744)" fill="#D9D9D9"/>
<rect width="14.6092" height="16.3992" transform="matrix(0.854308 -0.519767 0.39971 0.916642 887.957 158.248)" fill="#D9D9D9"/>
<rect width="14.6092" height="16.3992" transform="matrix(0.854308 -0.519767 0.39971 0.916642 873.978 166.753)" fill="#D9D9D9"/>
<rect width="14.6092" height="16.3992" transform="matrix(0.854308 -0.519767 0.39971 0.916642 971.827 107.221)" fill="#D9D9D9"/>
<rect width="14.6092" height="16.3992" transform="matrix(0.854308 -0.519767 0.39971 0.916642 1013.76 81.707)" fill="#D9D9D9"/>
<rect width="14.6092" height="16.3992" transform="matrix(0.854308 -0.519767 0.39971 0.916642 999.784 90.2115)" fill="#D9D9D9"/>
<rect width="14.6092" height="16.3992" transform="matrix(0.854308 -0.519767 0.39971 0.916642 985.806 98.7161)" fill="#D9D9D9"/>
<rect width="14.6092" height="16.3992" transform="matrix(0.854308 -0.519767 0.39971 0.916642 1055.98 56.0226)" fill="#D9D9D9"/>
<rect width="14.6092" height="16.3992" transform="matrix(0.854308 -0.519767 0.39971 0.916642 1042 64.5272)" fill="#D9D9D9"/>
<rect width="14.6092" height="16.3992" transform="matrix(0.854308 -0.519767 0.39971 0.916642 1028.02 73.0319)" fill="#D9D9D9"/>
<rect width="14.6092" height="16.3992" transform="matrix(0.854308 -0.519767 0.39971 0.916642 915.914 141.239)" fill="#D9D9D9"/>
<rect width="14.6092" height="16.3992" transform="matrix(0.854308 -0.519767 0.39971 0.916642 957.849 115.725)" fill="#D9D9D9"/>
<rect width="14.6092" height="16.3992" transform="matrix(0.854308 -0.519767 0.39971 0.916642 943.87 124.23)" fill="#D9D9D9"/>
<rect width="14.6092" height="16.3992" transform="matrix(0.854308 -0.519767 0.39971 0.916642 929.892 132.735)" fill="#D9D9D9"/>
<rect width="14.6092" height="16.3992" transform="matrix(0.854308 -0.519767 0.39971 0.916642 860 152.578)" fill="#D9D9D9"/>
<rect width="14.6092" height="16.3992" transform="matrix(0.854308 -0.519767 0.39971 0.916642 901.935 127.065)" fill="#D9D9D9"/>
<rect width="14.6092" height="16.3992" transform="matrix(0.854308 -0.519767 0.39971 0.916642 887.957 135.569)" fill="#D9D9D9"/>
<rect width="14.6092" height="16.3992" transform="matrix(0.854308 -0.519767 0.39971 0.916642 873.978 144.074)" fill="#D9D9D9"/>
<rect width="14.6092" height="16.3992" transform="matrix(0.854308 -0.519767 0.39971 0.916642 971.827 84.5416)" fill="#D9D9D9"/>
<rect width="14.6092" height="16.3992" transform="matrix(0.854308 -0.519767 0.39971 0.916642 1013.76 59.028)" fill="#D9D9D9"/>
<rect width="14.6092" height="16.3992" transform="matrix(0.854308 -0.519767 0.39971 0.916642 999.784 67.5325)" fill="#D9D9D9"/>
<rect width="14.6092" height="16.3992" transform="matrix(0.854308 -0.519767 0.39971 0.916642 985.806 76.037)" fill="#D9D9D9"/>
<rect width="14.6092" height="16.3992" transform="matrix(0.854308 -0.519767 0.39971 0.916642 1042 41.8482)" fill="#D9D9D9"/>
<rect width="14.6092" height="16.3992" transform="matrix(0.854308 -0.519767 0.39971 0.916642 1028.02 50.3528)" fill="#D9D9D9"/>
<rect width="14.6092" height="16.3992" transform="matrix(0.854308 -0.519767 0.39971 0.916642 915.914 118.56)" fill="#D9D9D9"/>
<rect width="14.6092" height="16.3992" transform="matrix(0.854308 -0.519767 0.39971 0.916642 957.849 93.0463)" fill="#D9D9D9"/>
<rect width="14.6092" height="16.3992" transform="matrix(0.854308 -0.519767 0.39971 0.916642 943.87 101.551)" fill="#D9D9D9"/>
<rect width="14.6092" height="16.3992" transform="matrix(0.854308 -0.519767 0.39971 0.916642 929.892 110.056)" fill="#D9D9D9"/>
<rect width="14.6092" height="16.3992" transform="matrix(0.854308 -0.519767 0.39971 0.916642 865 124.768)" fill="#D9D9D9"/>
<rect width="14.6092" height="16.3992" transform="matrix(0.854308 -0.519767 0.39971 0.916642 906.935 99.2541)" fill="#D9D9D9"/>
<rect width="14.6092" height="16.3992" transform="matrix(0.854308 -0.519767 0.39971 0.916642 892.957 107.759)" fill="#D9D9D9"/>
<rect width="14.6092" height="16.3992" transform="matrix(0.854308 -0.519767 0.39971 0.916642 878.978 116.263)" fill="#D9D9D9"/>
<rect width="14.6092" height="16.3992" transform="matrix(0.854308 -0.519767 0.39971 0.916642 976.827 56.7311)" fill="#D9D9D9"/>
<rect width="14.6092" height="16.3992" transform="matrix(0.854308 -0.519767 0.39971 0.916642 1018.76 31.2174)" fill="#D9D9D9"/>
<rect width="14.6092" height="16.3992" transform="matrix(0.854308 -0.519767 0.39971 0.916642 1004.78 39.7219)" fill="#D9D9D9"/>
<rect width="14.6092" height="16.3992" transform="matrix(0.854308 -0.519767 0.39971 0.916642 990.806 48.2265)" fill="#D9D9D9"/>
<rect width="14.6092" height="16.3992" transform="matrix(0.854308 -0.519767 0.39971 0.916642 920.914 90.7495)" fill="#D9D9D9"/>
<rect width="14.6092" height="16.3992" transform="matrix(0.854308 -0.519767 0.39971 0.916642 962.849 65.2357)" fill="#D9D9D9"/>
<rect width="14.6092" height="16.3992" transform="matrix(0.854308 -0.519767 0.39971 0.916642 948.87 73.7403)" fill="#D9D9D9"/>
<rect width="14.6092" height="16.3992" transform="matrix(0.854308 -0.519767 0.39971 0.916642 934.892 82.245)" fill="#D9D9D9"/>
<rect width="14.6092" height="16.3992" transform="matrix(0.854308 -0.519767 0.39971 0.916642 896.978 58.6209)" fill="#D9D9D9"/>
<rect width="14.6092" height="16.3992" transform="matrix(0.854308 -0.519767 0.39971 0.916642 883 67.1255)" fill="#D9D9D9"/>
<rect width="14.6092" height="16.3992" transform="matrix(0.854308 -0.519767 0.39971 0.916642 966.871 16.0979)" fill="#D9D9D9"/>
<rect width="14.6092" height="16.3992" transform="matrix(0.854308 -0.519767 0.39971 0.916642 980.849 7.59332)" fill="#D9D9D9"/>
<rect width="14.6092" height="16.3992" transform="matrix(0.854308 -0.519767 0.39971 0.916642 910.957 50.1163)" fill="#D9D9D9"/>
<rect width="14.6092" height="16.3992" transform="matrix(0.854308 -0.519767 0.39971 0.916642 952.892 24.6025)" fill="#D9D9D9"/>
<rect width="14.6092" height="16.3992" transform="matrix(0.854308 -0.519767 0.39971 0.916642 938.914 33.1071)" fill="#D9D9D9"/>
<rect width="14.6092" height="16.3992" transform="matrix(0.854308 -0.519767 0.39971 0.916642 924.935 41.6119)" fill="#D9D9D9"/>
<rect width="14.6092" height="16.3992" transform="matrix(0.854308 -0.519767 0.39971 0.916642 899.935 80.3548)" fill="#D9D9D9"/>
<rect width="14.6092" height="16.3992" transform="matrix(0.854308 -0.519767 0.39971 0.916642 885.957 88.8594)" fill="#D9D9D9"/>
<rect width="14.6092" height="16.3992" transform="matrix(0.854308 -0.519767 0.39971 0.916642 871.978 97.3639)" fill="#D9D9D9"/>
<rect width="14.6092" height="16.3992" transform="matrix(0.854308 -0.519767 0.39971 0.916642 969.827 37.8318)" fill="#D9D9D9"/>
<rect width="14.6092" height="16.3992" transform="matrix(0.854308 -0.519767 0.39971 0.916642 997.784 20.8226)" fill="#D9D9D9"/>
<rect width="14.6092" height="16.3992" transform="matrix(0.854308 -0.519767 0.39971 0.916642 983.806 29.3272)" fill="#D9D9D9"/>
<rect width="14.6092" height="16.3992" transform="matrix(0.854308 -0.519767 0.39971 0.916642 913.914 71.8502)" fill="#D9D9D9"/>
<rect width="14.6092" height="16.3992" transform="matrix(0.854308 -0.519767 0.39971 0.916642 955.849 46.3364)" fill="#D9D9D9"/>
<rect width="14.6092" height="16.3992" transform="matrix(0.854308 -0.519767 0.39971 0.916642 941.87 54.841)" fill="#D9D9D9"/>
<rect width="14.6092" height="16.3992" transform="matrix(0.854308 -0.519767 0.39971 0.916642 927.892 63.3458)" fill="#D9D9D9"/>
<rect width="14.6092" height="16.3992" transform="matrix(0.854308 -0.519767 0.39971 0.916642 860 381.968)" fill="#D9D9D9"/>
<rect width="14.6092" height="16.3992" transform="matrix(0.854308 -0.519767 0.39971 0.916642 901.935 356.454)" fill="#D9D9D9"/>
<rect width="14.6092" height="16.3992" transform="matrix(0.854308 -0.519767 0.39971 0.916642 887.957 364.959)" fill="#D9D9D9"/>
<rect width="14.6092" height="16.3992" transform="matrix(0.854308 -0.519767 0.39971 0.916642 873.978 373.463)" fill="#D9D9D9"/>
<rect width="14.6092" height="16.3992" transform="matrix(0.854308 -0.519767 0.39971 0.916642 971.827 313.931)" fill="#D9D9D9"/>
<rect width="14.6092" height="16.3992" transform="matrix(0.854308 -0.519767 0.39971 0.916642 1013.76 288.418)" fill="#D9D9D9"/>
<rect width="14.6092" height="16.3992" transform="matrix(0.854308 -0.519767 0.39971 0.916642 999.784 296.922)" fill="#D9D9D9"/>
<rect width="14.6092" height="16.3992" transform="matrix(0.854308 -0.519767 0.39971 0.916642 985.806 305.427)" fill="#D9D9D9"/>
<rect width="14.6092" height="16.3992" transform="matrix(0.854308 -0.519767 0.39971 0.916642 1055.98 262.733)" fill="#D9D9D9"/>
<rect width="14.6092" height="16.3992" transform="matrix(0.854308 -0.519767 0.39971 0.916642 1042 271.238)" fill="#D9D9D9"/>
<rect width="14.6092" height="16.3992" transform="matrix(0.854308 -0.519767 0.39971 0.916642 1028.02 279.742)" fill="#D9D9D9"/>
<rect width="14.6092" height="16.3992" transform="matrix(0.854308 -0.519767 0.39971 0.916642 915.914 347.95)" fill="#D9D9D9"/>
<rect width="14.6092" height="16.3992" transform="matrix(0.854308 -0.519767 0.39971 0.916642 957.849 322.436)" fill="#D9D9D9"/>
<rect width="14.6092" height="16.3992" transform="matrix(0.854308 -0.519767 0.39971 0.916642 943.87 330.94)" fill="#D9D9D9"/>
<rect width="14.6092" height="16.3992" transform="matrix(0.854308 -0.519767 0.39971 0.916642 929.892 339.445)" fill="#D9D9D9"/>
<rect width="14.6092" height="16.3992" transform="matrix(0.854308 -0.519767 0.39971 0.916642 860 221.324)" fill="#D9D9D9"/>
<rect width="14.6092" height="16.3992" transform="matrix(0.854308 -0.519767 0.39971 0.916642 901.935 195.811)" fill="#D9D9D9"/>
<rect width="14.6092" height="16.3992" transform="matrix(0.854308 -0.519767 0.39971 0.916642 887.957 204.315)" fill="#D9D9D9"/>
<rect width="14.6092" height="16.3992" transform="matrix(0.854308 -0.519767 0.39971 0.916642 873.978 212.82)" fill="#D9D9D9"/>
<rect width="14.6092" height="16.3992" transform="matrix(0.854308 -0.519767 0.39971 0.916642 971.827 153.288)" fill="#D9D9D9"/>
<rect width="14.6092" height="16.3992" transform="matrix(0.854308 -0.519767 0.39971 0.916642 1013.76 127.774)" fill="#D9D9D9"/>
<rect width="14.6092" height="16.3992" transform="matrix(0.854308 -0.519767 0.39971 0.916642 999.784 136.278)" fill="#D9D9D9"/>
<rect width="14.6092" height="16.3992" transform="matrix(0.854308 -0.519767 0.39971 0.916642 985.806 144.783)" fill="#D9D9D9"/>
<rect width="14.6092" height="16.3992" transform="matrix(0.854308 -0.519767 0.39971 0.916642 1055.98 102.09)" fill="#D9D9D9"/>
<rect width="14.6092" height="16.3992" transform="matrix(0.854308 -0.519767 0.39971 0.916642 1042 110.594)" fill="#D9D9D9"/>
<rect width="14.6092" height="16.3992" transform="matrix(0.854308 -0.519767 0.39971 0.916642 1028.02 119.099)" fill="#D9D9D9"/>
<rect width="14.6092" height="16.3992" transform="matrix(0.854308 -0.519767 0.39971 0.916642 915.914 187.306)" fill="#D9D9D9"/>
<rect width="14.6092" height="16.3992" transform="matrix(0.854308 -0.519767 0.39971 0.916642 957.849 161.792)" fill="#D9D9D9"/>
<rect width="14.6092" height="16.3992" transform="matrix(0.854308 -0.519767 0.39971 0.916642 943.87 170.297)" fill="#D9D9D9"/>
<rect width="14.6092" height="16.3992" transform="matrix(0.854308 -0.519767 0.39971 0.916642 929.892 178.802)" fill="#D9D9D9"/>
<rect width="14.6092" height="16.3992" transform="matrix(0.854308 -0.519767 0.39971 0.916642 860 197.7)" fill="#D9D9D9"/>
<rect width="14.6092" height="16.3992" transform="matrix(0.854308 -0.519767 0.39971 0.916642 901.935 172.187)" fill="#D9D9D9"/>
<rect width="14.6092" height="16.3992" transform="matrix(0.854308 -0.519767 0.39971 0.916642 887.957 180.691)" fill="#D9D9D9"/>
<rect width="14.6092" height="16.3992" transform="matrix(0.854308 -0.519767 0.39971 0.916642 873.978 189.196)" fill="#D9D9D9"/>
<rect width="14.6092" height="16.3992" transform="matrix(0.854308 -0.519767 0.39971 0.916642 971.827 129.664)" fill="#D9D9D9"/>
<rect width="14.6092" height="16.3992" transform="matrix(0.854308 -0.519767 0.39971 0.916642 1013.76 104.15)" fill="#D9D9D9"/>
<rect width="14.6092" height="16.3992" transform="matrix(0.854308 -0.519767 0.39971 0.916642 999.784 112.654)" fill="#D9D9D9"/>
<rect width="14.6092" height="16.3992" transform="matrix(0.854308 -0.519767 0.39971 0.916642 985.806 121.159)" fill="#D9D9D9"/>
<rect width="14.6092" height="16.3992" transform="matrix(0.854308 -0.519767 0.39971 0.916642 1055.98 78.4655)" fill="#D9D9D9"/>
<rect width="14.6092" height="16.3992" transform="matrix(0.854308 -0.519767 0.39971 0.916642 1042 86.9701)" fill="#D9D9D9"/>
<rect width="14.6092" height="16.3992" transform="matrix(0.854308 -0.519767 0.39971 0.916642 1028.02 95.4747)" fill="#D9D9D9"/>
<rect width="14.6092" height="16.3992" transform="matrix(0.854308 -0.519767 0.39971 0.916642 915.914 163.682)" fill="#D9D9D9"/>
<rect width="14.6092" height="16.3992" transform="matrix(0.854308 -0.519767 0.39971 0.916642 957.849 138.168)" fill="#D9D9D9"/>
<rect width="14.6092" height="16.3992" transform="matrix(0.854308 -0.519767 0.39971 0.916642 943.87 146.673)" fill="#D9D9D9"/>
<rect width="14.6092" height="16.3992" transform="matrix(0.854308 -0.519767 0.39971 0.916642 929.892 155.177)" fill="#D9D9D9"/>
<rect width="14.6092" height="16.3992" transform="matrix(0.854308 -0.519767 0.39971 0.916642 860 313.458)" fill="#D9D9D9"/>
<rect width="14.6092" height="16.3992" transform="matrix(0.854308 -0.519767 0.39971 0.916642 901.935 287.944)" fill="#D9D9D9"/>
<rect width="14.6092" height="16.3992" transform="matrix(0.854308 -0.519767 0.39971 0.916642 887.957 296.449)" fill="#D9D9D9"/>
<rect width="14.6092" height="16.3992" transform="matrix(0.854308 -0.519767 0.39971 0.916642 873.978 304.954)" fill="#D9D9D9"/>
<rect width="14.6092" height="16.3992" transform="matrix(0.854308 -0.519767 0.39971 0.916642 971.827 245.421)" fill="#D9D9D9"/>
<rect width="14.6092" height="16.3992" transform="matrix(0.854308 -0.519767 0.39971 0.916642 1013.76 219.908)" fill="#D9D9D9"/>
<rect width="14.6092" height="16.3992" transform="matrix(0.854308 -0.519767 0.39971 0.916642 999.784 228.412)" fill="#D9D9D9"/>
<rect width="14.6092" height="16.3992" transform="matrix(0.854308 -0.519767 0.39971 0.916642 985.806 236.917)" fill="#D9D9D9"/>
<rect width="14.6092" height="16.3992" transform="matrix(0.854308 -0.519767 0.39971 0.916642 1055.98 194.223)" fill="#D9D9D9"/>
<rect width="14.6092" height="16.3992" transform="matrix(0.854308 -0.519767 0.39971 0.916642 1042 202.728)" fill="#D9D9D9"/>
<rect width="14.6092" height="16.3992" transform="matrix(0.854308 -0.519767 0.39971 0.916642 1028.02 211.233)" fill="#D9D9D9"/>
<rect width="14.6092" height="16.3992" transform="matrix(0.854308 -0.519767 0.39971 0.916642 915.914 279.44)" fill="#D9D9D9"/>
<rect width="14.6092" height="16.3992" transform="matrix(0.854308 -0.519767 0.39971 0.916642 957.849 253.926)" fill="#D9D9D9"/>
<rect width="14.6092" height="16.3992" transform="matrix(0.854308 -0.519767 0.39971 0.916642 943.87 262.431)" fill="#D9D9D9"/>
<rect width="14.6092" height="16.3992" transform="matrix(0.854308 -0.519767 0.39971 0.916642 929.892 270.935)" fill="#D9D9D9"/>
<rect width="14.6092" height="16.3992" transform="matrix(0.854308 -0.519767 0.39971 0.916642 860 359.525)" fill="#D9D9D9"/>
<rect width="14.6092" height="16.3992" transform="matrix(0.854308 -0.519767 0.39971 0.916642 901.935 334.011)" fill="#D9D9D9"/>
<rect width="14.6092" height="16.3992" transform="matrix(0.854308 -0.519767 0.39971 0.916642 887.957 342.516)" fill="#D9D9D9"/>
<rect width="14.6092" height="16.3992" transform="matrix(0.854308 -0.519767 0.39971 0.916642 873.978 351.02)" fill="#D9D9D9"/>
<rect width="14.6092" height="16.3992" transform="matrix(0.854308 -0.519767 0.39971 0.916642 971.827 291.488)" fill="#D9D9D9"/>
<rect width="14.6092" height="16.3992" transform="matrix(0.854308 -0.519767 0.39971 0.916642 1013.76 265.975)" fill="#D9D9D9"/>
<rect width="14.6092" height="16.3992" transform="matrix(0.854308 -0.519767 0.39971 0.916642 999.784 274.479)" fill="#D9D9D9"/>
<rect width="14.6092" height="16.3992" transform="matrix(0.854308 -0.519767 0.39971 0.916642 985.806 282.984)" fill="#D9D9D9"/>
<rect width="14.6092" height="16.3992" transform="matrix(0.854308 -0.519767 0.39971 0.916642 1055.98 240.29)" fill="#D9D9D9"/>
<rect width="14.6092" height="16.3992" transform="matrix(0.854308 -0.519767 0.39971 0.916642 1042 248.795)" fill="#D9D9D9"/>
<rect width="14.6092" height="16.3992" transform="matrix(0.854308 -0.519767 0.39971 0.916642 1028.02 257.299)" fill="#D9D9D9"/>
<rect width="14.6092" height="16.3992" transform="matrix(0.854308 -0.519767 0.39971 0.916642 915.914 325.507)" fill="#D9D9D9"/>
<rect width="14.6092" height="16.3992" transform="matrix(0.854308 -0.519767 0.39971 0.916642 957.849 299.993)" fill="#D9D9D9"/>
<rect width="14.6092" height="16.3992" transform="matrix(0.854308 -0.519767 0.39971 0.916642 943.87 308.498)" fill="#D9D9D9"/>
<rect width="14.6092" height="16.3992" transform="matrix(0.854308 -0.519767 0.39971 0.916642 929.892 317.002)" fill="#D9D9D9"/>
<rect width="14.6092" height="16.3992" transform="matrix(0.854308 -0.519767 0.39971 0.916642 860 335.901)" fill="#D9D9D9"/>
<rect width="14.6092" height="16.3992" transform="matrix(0.854308 -0.519767 0.39971 0.916642 901.935 310.387)" fill="#D9D9D9"/>
<rect width="14.6092" height="16.3992" transform="matrix(0.854308 -0.519767 0.39971 0.916642 887.957 318.892)" fill="#D9D9D9"/>
<rect width="14.6092" height="16.3992" transform="matrix(0.854308 -0.519767 0.39971 0.916642 873.978 327.396)" fill="#D9D9D9"/>
<rect width="14.6092" height="16.3992" transform="matrix(0.854308 -0.519767 0.39971 0.916642 971.827 267.864)" fill="#D9D9D9"/>
<rect width="14.6092" height="16.3992" transform="matrix(0.854308 -0.519767 0.39971 0.916642 1013.76 242.351)" fill="#D9D9D9"/>
<rect width="14.6092" height="16.3992" transform="matrix(0.854308 -0.519767 0.39971 0.916642 999.784 250.855)" fill="#D9D9D9"/>
<rect width="14.6092" height="16.3992" transform="matrix(0.854308 -0.519767 0.39971 0.916642 985.806 259.36)" fill="#D9D9D9"/>
<rect width="14.6092" height="16.3992" transform="matrix(0.854308 -0.519767 0.39971 0.916642 1055.98 216.666)" fill="#D9D9D9"/>
<rect width="14.6092" height="16.3992" transform="matrix(0.854308 -0.519767 0.39971 0.916642 1042 225.171)" fill="#D9D9D9"/>
<rect width="14.6092" height="16.3992" transform="matrix(0.854308 -0.519767 0.39971 0.916642 1028.02 233.675)" fill="#D9D9D9"/>
<rect width="14.6092" height="16.3992" transform="matrix(0.854308 -0.519767 0.39971 0.916642 915.914 301.883)" fill="#D9D9D9"/>
<rect width="14.6092" height="16.3992" transform="matrix(0.854308 -0.519767 0.39971 0.916642 957.849 276.369)" fill="#D9D9D9"/>
<rect width="14.6092" height="16.3992" transform="matrix(0.854308 -0.519767 0.39971 0.916642 943.87 284.873)" fill="#D9D9D9"/>
<rect width="14.6092" height="16.3992" transform="matrix(0.854308 -0.519767 0.39971 0.916642 929.892 293.378)" fill="#D9D9D9"/>
<rect width="14.6092" height="16.3992" transform="matrix(0.854308 -0.519767 0.39971 0.916642 860 243.767)" fill="#D9D9D9"/>
<rect width="14.6092" height="16.3992" transform="matrix(0.854308 -0.519767 0.39971 0.916642 901.935 218.253)" fill="#D9D9D9"/>
<rect width="14.6092" height="16.3992" transform="matrix(0.854308 -0.519767 0.39971 0.916642 887.957 226.758)" fill="#D9D9D9"/>
<rect width="14.6092" height="16.3992" transform="matrix(0.854308 -0.519767 0.39971 0.916642 873.978 235.263)" fill="#D9D9D9"/>
<rect width="14.6092" height="16.3992" transform="matrix(0.854308 -0.519767 0.39971 0.916642 971.827 175.73)" fill="#D9D9D9"/>
<rect width="14.6092" height="16.3992" transform="matrix(0.854308 -0.519767 0.39971 0.916642 1013.76 150.217)" fill="#D9D9D9"/>
<rect width="14.6092" height="16.3992" transform="matrix(0.854308 -0.519767 0.39971 0.916642 999.784 158.721)" fill="#D9D9D9"/>
<rect width="14.6092" height="16.3992" transform="matrix(0.854308 -0.519767 0.39971 0.916642 985.806 167.226)" fill="#D9D9D9"/>
<rect width="14.6092" height="16.3992" transform="matrix(0.854308 -0.519767 0.39971 0.916642 1055.98 124.532)" fill="#D9D9D9"/>
<rect width="14.6092" height="16.3992" transform="matrix(0.854308 -0.519767 0.39971 0.916642 1042 133.037)" fill="#D9D9D9"/>
<rect width="14.6092" height="16.3992" transform="matrix(0.854308 -0.519767 0.39971 0.916642 1028.02 141.542)" fill="#D9D9D9"/>
<rect width="14.6092" height="16.3992" transform="matrix(0.854308 -0.519767 0.39971 0.916642 915.914 209.749)" fill="#D9D9D9"/>
<rect width="14.6092" height="16.3992" transform="matrix(0.854308 -0.519767 0.39971 0.916642 957.849 184.235)" fill="#D9D9D9"/>
<rect width="14.6092" height="16.3992" transform="matrix(0.854308 -0.519767 0.39971 0.916642 943.87 192.74)" fill="#D9D9D9"/>
<rect width="14.6092" height="16.3992" transform="matrix(0.854308 -0.519767 0.39971 0.916642 929.892 201.244)" fill="#D9D9D9"/>
<rect width="14.6092" height="16.3992" transform="matrix(0.854308 -0.519767 0.39971 0.916642 860 289.834)" fill="#D9D9D9"/>
<rect width="14.6092" height="16.3992" transform="matrix(0.854308 -0.519767 0.39971 0.916642 901.935 264.32)" fill="#D9D9D9"/>
<rect width="14.6092" height="16.3992" transform="matrix(0.854308 -0.519767 0.39971 0.916642 887.957 272.825)" fill="#D9D9D9"/>
<rect width="14.6092" height="16.3992" transform="matrix(0.854308 -0.519767 0.39971 0.916642 873.978 281.329)" fill="#D9D9D9"/>
<rect width="14.6092" height="16.3992" transform="matrix(0.854308 -0.519767 0.39971 0.916642 971.827 221.797)" fill="#D9D9D9"/>
<rect width="14.6092" height="16.3992" transform="matrix(0.854308 -0.519767 0.39971 0.916642 1013.76 196.284)" fill="#D9D9D9"/>
<rect width="14.6092" height="16.3992" transform="matrix(0.854308 -0.519767 0.39971 0.916642 999.784 204.788)" fill="#D9D9D9"/>
<rect width="14.6092" height="16.3992" transform="matrix(0.854308 -0.519767 0.39971 0.916642 985.806 213.293)" fill="#D9D9D9"/>
<rect width="14.6092" height="16.3992" transform="matrix(0.854308 -0.519767 0.39971 0.916642 1055.98 170.599)" fill="#D9D9D9"/>
<rect width="14.6092" height="16.3992" transform="matrix(0.854308 -0.519767 0.39971 0.916642 1042 179.104)" fill="#D9D9D9"/>
<rect width="14.6092" height="16.3992" transform="matrix(0.854308 -0.519767 0.39971 0.916642 1028.02 187.609)" fill="#D9D9D9"/>
<rect width="14.6092" height="16.3992" transform="matrix(0.854308 -0.519767 0.39971 0.916642 915.914 255.816)" fill="#D9D9D9"/>
<rect width="14.6092" height="16.3992" transform="matrix(0.854308 -0.519767 0.39971 0.916642 957.849 230.302)" fill="#D9D9D9"/>
<rect width="14.6092" height="16.3992" transform="matrix(0.854308 -0.519767 0.39971 0.916642 943.87 238.807)" fill="#D9D9D9"/>
<rect width="14.6092" height="16.3992" transform="matrix(0.854308 -0.519767 0.39971 0.916642 929.892 247.311)" fill="#D9D9D9"/>
<rect width="14.6092" height="16.3992" transform="matrix(0.854308 -0.519767 0.39971 0.916642 860 266.21)" fill="#D9D9D9"/>
<rect width="14.6092" height="16.3992" transform="matrix(0.854308 -0.519767 0.39971 0.916642 901.935 240.696)" fill="#D9D9D9"/>
<rect width="14.6092" height="16.3992" transform="matrix(0.854308 -0.519767 0.39971 0.916642 887.957 249.201)" fill="#D9D9D9"/>
<rect width="14.6092" height="16.3992" transform="matrix(0.854308 -0.519767 0.39971 0.916642 873.978 257.705)" fill="#D9D9D9"/>
<rect width="14.6092" height="16.3992" transform="matrix(0.854308 -0.519767 0.39971 0.916642 971.827 198.173)" fill="#D9D9D9"/>
<rect width="14.6092" height="16.3992" transform="matrix(0.854308 -0.519767 0.39971 0.916642 1013.76 172.66)" fill="#D9D9D9"/>
<rect width="14.6092" height="16.3992" transform="matrix(0.854308 -0.519767 0.39971 0.916642 999.784 181.164)" fill="#D9D9D9"/>
<rect width="14.6092" height="16.3992" transform="matrix(0.854308 -0.519767 0.39971 0.916642 985.806 189.669)" fill="#D9D9D9"/>
<rect width="14.6092" height="16.3992" transform="matrix(0.854308 -0.519767 0.39971 0.916642 1055.98 146.975)" fill="#D9D9D9"/>
<rect width="14.6092" height="16.3992" transform="matrix(0.854308 -0.519767 0.39971 0.916642 1042 155.48)" fill="#D9D9D9"/>
<rect width="14.6092" height="16.3992" transform="matrix(0.854308 -0.519767 0.39971 0.916642 1028.02 163.984)" fill="#D9D9D9"/>
<rect width="14.6092" height="16.3992" transform="matrix(0.854308 -0.519767 0.39971 0.916642 915.914 232.192)" fill="#D9D9D9"/>
<rect width="14.6092" height="16.3992" transform="matrix(0.854308 -0.519767 0.39971 0.916642 957.849 206.678)" fill="#D9D9D9"/>
<rect width="14.6092" height="16.3992" transform="matrix(0.854308 -0.519767 0.39971 0.916642 943.87 215.182)" fill="#D9D9D9"/>
<rect width="14.6092" height="16.3992" transform="matrix(0.854308 -0.519767 0.39971 0.916642 929.892 223.687)" fill="#D9D9D9"/>
<rect width="14.6085" height="16.399" transform="matrix(-0.854293 -0.519792 -0.399689 0.916651 215 175.257)" fill="#D9D9D9"/>
<rect width="14.6085" height="16.399" transform="matrix(-0.854293 -0.519792 -0.399689 0.916651 173.068 149.744)" fill="#D9D9D9"/>
<rect width="14.6085" height="16.399" transform="matrix(-0.854293 -0.519792 -0.399689 0.916651 187.045 158.248)" fill="#D9D9D9"/>
<rect width="14.6085" height="16.399" transform="matrix(-0.854293 -0.519792 -0.399689 0.916651 201.022 166.753)" fill="#D9D9D9"/>
<rect width="14.6085" height="16.399" transform="matrix(-0.854293 -0.519792 -0.399689 0.916651 103.18 107.221)" fill="#D9D9D9"/>
<rect width="14.6085" height="16.399" transform="matrix(-0.854293 -0.519792 -0.399689 0.916651 61.2473 81.707)" fill="#D9D9D9"/>
<rect width="14.6085" height="16.399" transform="matrix(-0.854293 -0.519792 -0.399689 0.916651 75.2247 90.2115)" fill="#D9D9D9"/>
<rect width="14.6085" height="16.399" transform="matrix(-0.854293 -0.519792 -0.399689 0.916651 89.2023 98.7161)" fill="#D9D9D9"/>
<rect width="14.6085" height="16.399" transform="matrix(-0.854293 -0.519792 -0.399689 0.916651 19.0344 56.0226)" fill="#D9D9D9"/>
<rect width="14.6085" height="16.399" transform="matrix(-0.854293 -0.519792 -0.399689 0.916651 33.012 64.5272)" fill="#D9D9D9"/>
<rect width="14.6085" height="16.399" transform="matrix(-0.854293 -0.519792 -0.399689 0.916651 46.9894 73.0319)" fill="#D9D9D9"/>
<rect width="14.6085" height="16.399" transform="matrix(-0.854293 -0.519792 -0.399689 0.916651 159.09 141.239)" fill="#D9D9D9"/>
<rect width="14.6085" height="16.399" transform="matrix(-0.854293 -0.519792 -0.399689 0.916651 117.157 115.725)" fill="#D9D9D9"/>
<rect width="14.6085" height="16.399" transform="matrix(-0.854293 -0.519792 -0.399689 0.916651 131.135 124.23)" fill="#D9D9D9"/>
<rect width="14.6085" height="16.399" transform="matrix(-0.854293 -0.519792 -0.399689 0.916651 145.113 132.735)" fill="#D9D9D9"/>
<rect width="14.6085" height="16.399" transform="matrix(-0.854293 -0.519792 -0.399689 0.916651 215 152.578)" fill="#D9D9D9"/>
<rect width="14.6085" height="16.399" transform="matrix(-0.854293 -0.519792 -0.399689 0.916651 173.068 127.065)" fill="#D9D9D9"/>
<rect width="14.6085" height="16.399" transform="matrix(-0.854293 -0.519792 -0.399689 0.916651 187.045 135.569)" fill="#D9D9D9"/>
<rect width="14.6085" height="16.399" transform="matrix(-0.854293 -0.519792 -0.399689 0.916651 201.022 144.074)" fill="#D9D9D9"/>
<rect width="14.6085" height="16.399" transform="matrix(-0.854293 -0.519792 -0.399689 0.916651 103.18 84.5416)" fill="#D9D9D9"/>
<rect width="14.6085" height="16.399" transform="matrix(-0.854293 -0.519792 -0.399689 0.916651 61.2473 59.028)" fill="#D9D9D9"/>
<rect width="14.6085" height="16.399" transform="matrix(-0.854293 -0.519792 -0.399689 0.916651 75.2247 67.5325)" fill="#D9D9D9"/>
<rect width="14.6085" height="16.399" transform="matrix(-0.854293 -0.519792 -0.399689 0.916651 89.2021 76.037)" fill="#D9D9D9"/>
<rect width="14.6085" height="16.399" transform="matrix(-0.854293 -0.519792 -0.399689 0.916651 33.012 41.8482)" fill="#D9D9D9"/>
<rect width="14.6085" height="16.399" transform="matrix(-0.854293 -0.519792 -0.399689 0.916651 46.9894 50.3528)" fill="#D9D9D9"/>
<rect width="14.6085" height="16.399" transform="matrix(-0.854293 -0.519792 -0.399689 0.916651 159.09 118.56)" fill="#D9D9D9"/>
<rect width="14.6085" height="16.399" transform="matrix(-0.854293 -0.519792 -0.399689 0.916651 117.157 93.0463)" fill="#D9D9D9"/>
<rect width="14.6085" height="16.399" transform="matrix(-0.854293 -0.519792 -0.399689 0.916651 131.135 101.551)" fill="#D9D9D9"/>
<rect width="14.6085" height="16.399" transform="matrix(-0.854293 -0.519792 -0.399689 0.916651 145.113 110.056)" fill="#D9D9D9"/>
<rect width="14.6085" height="16.399" transform="matrix(-0.854293 -0.519792 -0.399689 0.916651 210 124.768)" fill="#D9D9D9"/>
<rect width="14.6085" height="16.399" transform="matrix(-0.854293 -0.519792 -0.399689 0.916651 168.068 99.2541)" fill="#D9D9D9"/>
<rect width="14.6085" height="16.399" transform="matrix(-0.854293 -0.519792 -0.399689 0.916651 182.045 107.759)" fill="#D9D9D9"/>
<rect width="14.6085" height="16.399" transform="matrix(-0.854293 -0.519792 -0.399689 0.916651 196.023 116.263)" fill="#D9D9D9"/>
<rect width="14.6085" height="16.399" transform="matrix(-0.854293 -0.519792 -0.399689 0.916651 98.1801 56.7311)" fill="#D9D9D9"/>
<rect width="14.6085" height="16.399" transform="matrix(-0.854293 -0.519792 -0.399689 0.916651 56.2474 31.2174)" fill="#D9D9D9"/>
<rect width="14.6085" height="16.399" transform="matrix(-0.854293 -0.519792 -0.399689 0.916651 70.2249 39.7219)" fill="#D9D9D9"/>
<rect width="14.6085" height="16.399" transform="matrix(-0.854293 -0.519792 -0.399689 0.916651 84.2024 48.2265)" fill="#D9D9D9"/>
<rect width="14.6085" height="16.399" transform="matrix(-0.854293 -0.519792 -0.399689 0.916651 154.09 90.7495)" fill="#D9D9D9"/>
<rect width="14.6085" height="16.399" transform="matrix(-0.854293 -0.519792 -0.399689 0.916651 112.157 65.2357)" fill="#D9D9D9"/>
<rect width="14.6085" height="16.399" transform="matrix(-0.854293 -0.519792 -0.399689 0.916651 126.135 73.7403)" fill="#D9D9D9"/>
<rect width="14.6085" height="16.399" transform="matrix(-0.854293 -0.519792 -0.399689 0.916651 140.113 82.245)" fill="#D9D9D9"/>
<rect width="14.6085" height="16.399" transform="matrix(-0.854293 -0.519792 -0.399689 0.916651 178.024 58.6209)" fill="#D9D9D9"/>
<rect width="14.6085" height="16.399" transform="matrix(-0.854293 -0.519792 -0.399689 0.916651 192.001 67.1255)" fill="#D9D9D9"/>
<rect width="14.6085" height="16.399" transform="matrix(-0.854293 -0.519792 -0.399689 0.916651 108.136 16.0979)" fill="#D9D9D9"/>
<rect width="14.6085" height="16.399" transform="matrix(-0.854293 -0.519792 -0.399689 0.916651 94.1587 7.59332)" fill="#D9D9D9"/>
<rect width="14.6085" height="16.399" transform="matrix(-0.854293 -0.519792 -0.399689 0.916651 164.047 50.1163)" fill="#D9D9D9"/>
<rect width="14.6085" height="16.399" transform="matrix(-0.854293 -0.519792 -0.399689 0.916651 122.114 24.6025)" fill="#D9D9D9"/>
<rect width="14.6085" height="16.399" transform="matrix(-0.854293 -0.519792 -0.399689 0.916651 136.091 33.1071)" fill="#D9D9D9"/>
<rect width="14.6085" height="16.399" transform="matrix(-0.854293 -0.519792 -0.399689 0.916651 150.069 41.6119)" fill="#D9D9D9"/>
<rect width="14.6085" height="16.399" transform="matrix(-0.854293 -0.519792 -0.399689 0.916651 175.067 80.3548)" fill="#D9D9D9"/>
<rect width="14.6085" height="16.399" transform="matrix(-0.854293 -0.519792 -0.399689 0.916651 189.045 88.8594)" fill="#D9D9D9"/>
<rect width="14.6085" height="16.399" transform="matrix(-0.854293 -0.519792 -0.399689 0.916651 203.022 97.3639)" fill="#D9D9D9"/>
<rect width="14.6085" height="16.399" transform="matrix(-0.854293 -0.519792 -0.399689 0.916651 105.18 37.8318)" fill="#D9D9D9"/>
<rect width="14.6085" height="16.399" transform="matrix(-0.854293 -0.519792 -0.399689 0.916651 77.2246 20.8226)" fill="#D9D9D9"/>
<rect width="14.6085" height="16.399" transform="matrix(-0.854293 -0.519792 -0.399689 0.916651 91.2021 29.3272)" fill="#D9D9D9"/>
<rect width="14.6085" height="16.399" transform="matrix(-0.854293 -0.519792 -0.399689 0.916651 161.09 71.8502)" fill="#D9D9D9"/>
<rect width="14.6085" height="16.399" transform="matrix(-0.854293 -0.519792 -0.399689 0.916651 119.157 46.3364)" fill="#D9D9D9"/>
<rect width="14.6085" height="16.399" transform="matrix(-0.854293 -0.519792 -0.399689 0.916651 133.135 54.841)" fill="#D9D9D9"/>
<rect width="14.6085" height="16.399" transform="matrix(-0.854293 -0.519792 -0.399689 0.916651 147.112 63.3458)" fill="#D9D9D9"/>
<rect width="14.6085" height="16.399" transform="matrix(-0.854293 -0.519792 -0.399689 0.916651 215 381.968)" fill="#D9D9D9"/>
<rect width="14.6085" height="16.399" transform="matrix(-0.854293 -0.519792 -0.399689 0.916651 173.068 356.454)" fill="#D9D9D9"/>
<rect width="14.6085" height="16.399" transform="matrix(-0.854293 -0.519792 -0.399689 0.916651 187.045 364.959)" fill="#D9D9D9"/>
<rect width="14.6085" height="16.399" transform="matrix(-0.854293 -0.519792 -0.399689 0.916651 201.023 373.463)" fill="#D9D9D9"/>
<rect width="14.6085" height="16.399" transform="matrix(-0.854293 -0.519792 -0.399689 0.916651 103.18 313.931)" fill="#D9D9D9"/>
<rect width="14.6085" height="16.399" transform="matrix(-0.854293 -0.519792 -0.399689 0.916651 61.2473 288.418)" fill="#D9D9D9"/>
<rect width="14.6085" height="16.399" transform="matrix(-0.854293 -0.519792 -0.399689 0.916651 75.2247 296.922)" fill="#D9D9D9"/>
<rect width="14.6085" height="16.399" transform="matrix(-0.854293 -0.519792 -0.399689 0.916651 89.2023 305.427)" fill="#D9D9D9"/>
<rect width="14.6085" height="16.399" transform="matrix(-0.854293 -0.519792 -0.399689 0.916651 19.0344 262.733)" fill="#D9D9D9"/>
<rect width="14.6085" height="16.399" transform="matrix(-0.854293 -0.519792 -0.399689 0.916651 33.012 271.238)" fill="#D9D9D9"/>
<rect width="14.6085" height="16.399" transform="matrix(-0.854293 -0.519792 -0.399689 0.916651 46.9894 279.742)" fill="#D9D9D9"/>
<rect width="14.6085" height="16.399" transform="matrix(-0.854293 -0.519792 -0.399689 0.916651 159.09 347.95)" fill="#D9D9D9"/>
<rect width="14.6085" height="16.399" transform="matrix(-0.854293 -0.519792 -0.399689 0.916651 117.157 322.436)" fill="#D9D9D9"/>
<rect width="14.6085" height="16.399" transform="matrix(-0.854293 -0.519792 -0.399689 0.916651 131.135 330.94)" fill="#D9D9D9"/>
<rect width="14.6085" height="16.399" transform="matrix(-0.854293 -0.519792 -0.399689 0.916651 145.113 339.445)" fill="#D9D9D9"/>
<rect width="14.6085" height="16.399" transform="matrix(-0.854293 -0.519792 -0.399689 0.916651 215 221.324)" fill="#D9D9D9"/>
<rect width="14.6085" height="16.399" transform="matrix(-0.854293 -0.519792 -0.399689 0.916651 173.068 195.811)" fill="#D9D9D9"/>
<rect width="14.6085" height="16.399" transform="matrix(-0.854293 -0.519792 -0.399689 0.916651 187.045 204.315)" fill="#D9D9D9"/>
<rect width="14.6085" height="16.399" transform="matrix(-0.854293 -0.519792 -0.399689 0.916651 201.023 212.82)" fill="#D9D9D9"/>
<rect width="14.6085" height="16.399" transform="matrix(-0.854293 -0.519792 -0.399689 0.916651 103.18 153.288)" fill="#D9D9D9"/>
<rect width="14.6085" height="16.399" transform="matrix(-0.854293 -0.519792 -0.399689 0.916651 61.2472 127.774)" fill="#D9D9D9"/>
<rect width="14.6085" height="16.399" transform="matrix(-0.854293 -0.519792 -0.399689 0.916651 75.2247 136.278)" fill="#D9D9D9"/>
<rect width="14.6085" height="16.399" transform="matrix(-0.854293 -0.519792 -0.399689 0.916651 89.2021 144.783)" fill="#D9D9D9"/>
<rect width="14.6085" height="16.399" transform="matrix(-0.854293 -0.519792 -0.399689 0.916651 19.0344 102.09)" fill="#D9D9D9"/>
<rect width="14.6085" height="16.399" transform="matrix(-0.854293 -0.519792 -0.399689 0.916651 33.0118 110.594)" fill="#D9D9D9"/>
<rect width="14.6085" height="16.399" transform="matrix(-0.854293 -0.519792 -0.399689 0.916651 46.9894 119.099)" fill="#D9D9D9"/>
<rect width="14.6085" height="16.399" transform="matrix(-0.854293 -0.519792 -0.399689 0.916651 159.09 187.306)" fill="#D9D9D9"/>
<rect width="14.6085" height="16.399" transform="matrix(-0.854293 -0.519792 -0.399689 0.916651 117.157 161.792)" fill="#D9D9D9"/>
<rect width="14.6085" height="16.399" transform="matrix(-0.854293 -0.519792 -0.399689 0.916651 131.135 170.297)" fill="#D9D9D9"/>
<rect width="14.6085" height="16.399" transform="matrix(-0.854293 -0.519792 -0.399689 0.916651 145.113 178.802)" fill="#D9D9D9"/>
<rect width="14.6085" height="16.399" transform="matrix(-0.854293 -0.519792 -0.399689 0.916651 215 197.7)" fill="#D9D9D9"/>
<rect width="14.6085" height="16.399" transform="matrix(-0.854293 -0.519792 -0.399689 0.916651 173.068 172.187)" fill="#D9D9D9"/>
<rect width="14.6085" height="16.399" transform="matrix(-0.854293 -0.519792 -0.399689 0.916651 187.045 180.691)" fill="#D9D9D9"/>
<rect width="14.6085" height="16.399" transform="matrix(-0.854293 -0.519792 -0.399689 0.916651 201.023 189.196)" fill="#D9D9D9"/>
<rect width="14.6085" height="16.399" transform="matrix(-0.854293 -0.519792 -0.399689 0.916651 103.18 129.664)" fill="#D9D9D9"/>
<rect width="14.6085" height="16.399" transform="matrix(-0.854293 -0.519792 -0.399689 0.916651 61.2473 104.15)" fill="#D9D9D9"/>
<rect width="14.6085" height="16.399" transform="matrix(-0.854293 -0.519792 -0.399689 0.916651 75.2247 112.654)" fill="#D9D9D9"/>
<rect width="14.6085" height="16.399" transform="matrix(-0.854293 -0.519792 -0.399689 0.916651 89.2021 121.159)" fill="#D9D9D9"/>
<rect width="14.6085" height="16.399" transform="matrix(-0.854293 -0.519792 -0.399689 0.916651 19.0344 78.4655)" fill="#D9D9D9"/>
<rect width="14.6085" height="16.399" transform="matrix(-0.854293 -0.519792 -0.399689 0.916651 33.0118 86.9701)" fill="#D9D9D9"/>
<rect width="14.6085" height="16.399" transform="matrix(-0.854293 -0.519792 -0.399689 0.916651 46.9894 95.4747)" fill="#D9D9D9"/>
<rect width="14.6085" height="16.399" transform="matrix(-0.854293 -0.519792 -0.399689 0.916651 159.09 163.682)" fill="#D9D9D9"/>
<rect width="14.6085" height="16.399" transform="matrix(-0.854293 -0.519792 -0.399689 0.916651 117.157 138.168)" fill="#D9D9D9"/>
<rect width="14.6085" height="16.399" transform="matrix(-0.854293 -0.519792 -0.399689 0.916651 131.135 146.673)" fill="#D9D9D9"/>
<rect width="14.6085" height="16.399" transform="matrix(-0.854293 -0.519792 -0.399689 0.916651 145.113 155.177)" fill="#D9D9D9"/>
<rect width="14.6085" height="16.399" transform="matrix(-0.854293 -0.519792 -0.399689 0.916651 215 313.458)" fill="#D9D9D9"/>
<rect width="14.6085" height="16.399" transform="matrix(-0.854293 -0.519792 -0.399689 0.916651 173.068 287.944)" fill="#D9D9D9"/>
<rect width="14.6085" height="16.399" transform="matrix(-0.854293 -0.519792 -0.399689 0.916651 187.045 296.449)" fill="#D9D9D9"/>
<rect width="14.6085" height="16.399" transform="matrix(-0.854293 -0.519792 -0.399689 0.916651 201.022 304.953)" fill="#D9D9D9"/>
<rect width="14.6085" height="16.399" transform="matrix(-0.854293 -0.519792 -0.399689 0.916651 103.18 245.421)" fill="#D9D9D9"/>
<rect width="14.6085" height="16.399" transform="matrix(-0.854293 -0.519792 -0.399689 0.916651 61.2473 219.908)" fill="#D9D9D9"/>
<rect width="14.6085" height="16.399" transform="matrix(-0.854293 -0.519792 -0.399689 0.916651 75.2247 228.412)" fill="#D9D9D9"/>
<rect width="14.6085" height="16.399" transform="matrix(-0.854293 -0.519792 -0.399689 0.916651 89.2023 236.917)" fill="#D9D9D9"/>
<rect width="14.6085" height="16.399" transform="matrix(-0.854293 -0.519792 -0.399689 0.916651 19.0344 194.223)" fill="#D9D9D9"/>
<rect width="14.6085" height="16.399" transform="matrix(-0.854293 -0.519792 -0.399689 0.916651 33.012 202.728)" fill="#D9D9D9"/>
<rect width="14.6085" height="16.399" transform="matrix(-0.854293 -0.519792 -0.399689 0.916651 46.9894 211.233)" fill="#D9D9D9"/>
<rect width="14.6085" height="16.399" transform="matrix(-0.854293 -0.519792 -0.399689 0.916651 159.09 279.44)" fill="#D9D9D9"/>
<rect width="14.6085" height="16.399" transform="matrix(-0.854293 -0.519792 -0.399689 0.916651 117.157 253.926)" fill="#D9D9D9"/>
<rect width="14.6085" height="16.399" transform="matrix(-0.854293 -0.519792 -0.399689 0.916651 131.135 262.431)" fill="#D9D9D9"/>
<rect width="14.6085" height="16.399" transform="matrix(-0.854293 -0.519792 -0.399689 0.916651 145.113 270.935)" fill="#D9D9D9"/>
<rect width="14.6085" height="16.399" transform="matrix(-0.854293 -0.519792 -0.399689 0.916651 215 359.525)" fill="#D9D9D9"/>
<rect width="14.6085" height="16.399" transform="matrix(-0.854293 -0.519792 -0.399689 0.916651 173.068 334.011)" fill="#D9D9D9"/>
<rect width="14.6085" height="16.399" transform="matrix(-0.854293 -0.519792 -0.399689 0.916651 187.045 342.516)" fill="#D9D9D9"/>
<rect width="14.6085" height="16.399" transform="matrix(-0.854293 -0.519792 -0.399689 0.916651 201.022 351.02)" fill="#D9D9D9"/>
<rect width="14.6085" height="16.399" transform="matrix(-0.854293 -0.519792 -0.399689 0.916651 103.18 291.488)" fill="#D9D9D9"/>
<rect width="14.6085" height="16.399" transform="matrix(-0.854293 -0.519792 -0.399689 0.916651 61.2472 265.975)" fill="#D9D9D9"/>
<rect width="14.6085" height="16.399" transform="matrix(-0.854293 -0.519792 -0.399689 0.916651 75.2247 274.479)" fill="#D9D9D9"/>
<rect width="14.6085" height="16.399" transform="matrix(-0.854293 -0.519792 -0.399689 0.916651 89.2021 282.984)" fill="#D9D9D9"/>
<rect width="14.6085" height="16.399" transform="matrix(-0.854293 -0.519792 -0.399689 0.916651 19.0344 240.29)" fill="#D9D9D9"/>
<rect width="14.6085" height="16.399" transform="matrix(-0.854293 -0.519792 -0.399689 0.916651 33.0118 248.795)" fill="#D9D9D9"/>
<rect width="14.6085" height="16.399" transform="matrix(-0.854293 -0.519792 -0.399689 0.916651 46.9894 257.299)" fill="#D9D9D9"/>
<rect width="14.6085" height="16.399" transform="matrix(-0.854293 -0.519792 -0.399689 0.916651 159.09 325.507)" fill="#D9D9D9"/>
<rect width="14.6085" height="16.399" transform="matrix(-0.854293 -0.519792 -0.399689 0.916651 117.157 299.993)" fill="#D9D9D9"/>
<rect width="14.6085" height="16.399" transform="matrix(-0.854293 -0.519792 -0.399689 0.916651 131.135 308.497)" fill="#D9D9D9"/>
<rect width="14.6085" height="16.399" transform="matrix(-0.854293 -0.519792 -0.399689 0.916651 145.113 317.002)" fill="#D9D9D9"/>
<rect width="14.6085" height="16.399" transform="matrix(-0.854293 -0.519792 -0.399689 0.916651 215 335.901)" fill="#D9D9D9"/>
<rect width="14.6085" height="16.399" transform="matrix(-0.854293 -0.519792 -0.399689 0.916651 173.068 310.387)" fill="#D9D9D9"/>
<rect width="14.6085" height="16.399" transform="matrix(-0.854293 -0.519792 -0.399689 0.916651 187.045 318.892)" fill="#D9D9D9"/>
<rect width="14.6085" height="16.399" transform="matrix(-0.854293 -0.519792 -0.399689 0.916651 201.022 327.396)" fill="#D9D9D9"/>
<rect width="14.6085" height="16.399" transform="matrix(-0.854293 -0.519792 -0.399689 0.916651 103.18 267.864)" fill="#D9D9D9"/>
<rect width="14.6085" height="16.399" transform="matrix(-0.854293 -0.519792 -0.399689 0.916651 61.2472 242.351)" fill="#D9D9D9"/>
<rect width="14.6085" height="16.399" transform="matrix(-0.854293 -0.519792 -0.399689 0.916651 75.2247 250.855)" fill="#D9D9D9"/>
<rect width="14.6085" height="16.399" transform="matrix(-0.854293 -0.519792 -0.399689 0.916651 89.2023 259.36)" fill="#D9D9D9"/>
<rect width="14.6085" height="16.399" transform="matrix(-0.854293 -0.519792 -0.399689 0.916651 19.0344 216.666)" fill="#D9D9D9"/>
<rect width="14.6085" height="16.399" transform="matrix(-0.854293 -0.519792 -0.399689 0.916651 33.0118 225.171)" fill="#D9D9D9"/>
<rect width="14.6085" height="16.399" transform="matrix(-0.854293 -0.519792 -0.399689 0.916651 46.9894 233.675)" fill="#D9D9D9"/>
<rect width="14.6085" height="16.399" transform="matrix(-0.854293 -0.519792 -0.399689 0.916651 159.09 301.883)" fill="#D9D9D9"/>
<rect width="14.6085" height="16.399" transform="matrix(-0.854293 -0.519792 -0.399689 0.916651 117.157 276.369)" fill="#D9D9D9"/>
<rect width="14.6085" height="16.399" transform="matrix(-0.854293 -0.519792 -0.399689 0.916651 131.135 284.873)" fill="#D9D9D9"/>
<rect width="14.6085" height="16.399" transform="matrix(-0.854293 -0.519792 -0.399689 0.916651 145.113 293.378)" fill="#D9D9D9"/>
<rect width="14.6085" height="16.399" transform="matrix(-0.854293 -0.519792 -0.399689 0.916651 215 243.767)" fill="#D9D9D9"/>
<rect width="14.6085" height="16.399" transform="matrix(-0.854293 -0.519792 -0.399689 0.916651 173.068 218.253)" fill="#D9D9D9"/>
<rect width="14.6085" height="16.399" transform="matrix(-0.854293 -0.519792 -0.399689 0.916651 187.045 226.758)" fill="#D9D9D9"/>
<rect width="14.6085" height="16.399" transform="matrix(-0.854293 -0.519792 -0.399689 0.916651 201.023 235.263)" fill="#D9D9D9"/>
<rect width="14.6085" height="16.399" transform="matrix(-0.854293 -0.519792 -0.399689 0.916651 103.18 175.73)" fill="#D9D9D9"/>
<rect width="14.6085" height="16.399" transform="matrix(-0.854293 -0.519792 -0.399689 0.916651 61.2473 150.217)" fill="#D9D9D9"/>
<rect width="14.6085" height="16.399" transform="matrix(-0.854293 -0.519792 -0.399689 0.916651 75.2247 158.721)" fill="#D9D9D9"/>
<rect width="14.6085" height="16.399" transform="matrix(-0.854293 -0.519792 -0.399689 0.916651 89.2023 167.226)" fill="#D9D9D9"/>
<rect width="14.6085" height="16.399" transform="matrix(-0.854293 -0.519792 -0.399689 0.916651 19.0344 124.532)" fill="#D9D9D9"/>
<rect width="14.6085" height="16.399" transform="matrix(-0.854293 -0.519792 -0.399689 0.916651 33.012 133.037)" fill="#D9D9D9"/>
<rect width="14.6085" height="16.399" transform="matrix(-0.854293 -0.519792 -0.399689 0.916651 46.9894 141.542)" fill="#D9D9D9"/>
<rect width="14.6085" height="16.399" transform="matrix(-0.854293 -0.519792 -0.399689 0.916651 159.09 209.749)" fill="#D9D9D9"/>
<rect width="14.6085" height="16.399" transform="matrix(-0.854293 -0.519792 -0.399689 0.916651 117.157 184.235)" fill="#D9D9D9"/>
<rect width="14.6085" height="16.399" transform="matrix(-0.854293 -0.519792 -0.399689 0.916651 131.135 192.74)" fill="#D9D9D9"/>
<rect width="14.6085" height="16.399" transform="matrix(-0.854293 -0.519792 -0.399689 0.916651 145.113 201.244)" fill="#D9D9D9"/>
<rect width="14.6085" height="16.399" transform="matrix(-0.854293 -0.519792 -0.399689 0.916651 215 289.834)" fill="#D9D9D9"/>
<rect width="14.6085" height="16.399" transform="matrix(-0.854293 -0.519792 -0.399689 0.916651 173.068 264.32)" fill="#D9D9D9"/>
<rect width="14.6085" height="16.399" transform="matrix(-0.854293 -0.519792 -0.399689 0.916651 187.045 272.825)" fill="#D9D9D9"/>
<rect width="14.6085" height="16.399" transform="matrix(-0.854293 -0.519792 -0.399689 0.916651 201.022 281.329)" fill="#D9D9D9"/>
<rect width="14.6085" height="16.399" transform="matrix(-0.854293 -0.519792 -0.399689 0.916651 103.18 221.797)" fill="#D9D9D9"/>
<rect width="14.6085" height="16.399" transform="matrix(-0.854293 -0.519792 -0.399689 0.916651 61.2473 196.284)" fill="#D9D9D9"/>
<rect width="14.6085" height="16.399" transform="matrix(-0.854293 -0.519792 -0.399689 0.916651 75.2247 204.788)" fill="#D9D9D9"/>
<rect width="14.6085" height="16.399" transform="matrix(-0.854293 -0.519792 -0.399689 0.916651 89.2023 213.293)" fill="#D9D9D9"/>
<rect width="14.6085" height="16.399" transform="matrix(-0.854293 -0.519792 -0.399689 0.916651 19.0344 170.599)" fill="#D9D9D9"/>
<rect width="14.6085" height="16.399" transform="matrix(-0.854293 -0.519792 -0.399689 0.916651 33.012 179.104)" fill="#D9D9D9"/>
<rect width="14.6085" height="16.399" transform="matrix(-0.854293 -0.519792 -0.399689 0.916651 46.9894 187.609)" fill="#D9D9D9"/>
<rect width="14.6085" height="16.399" transform="matrix(-0.854293 -0.519792 -0.399689 0.916651 159.09 255.816)" fill="#D9D9D9"/>
<rect width="14.6085" height="16.399" transform="matrix(-0.854293 -0.519792 -0.399689 0.916651 117.157 230.302)" fill="#D9D9D9"/>
<rect width="14.6085" height="16.399" transform="matrix(-0.854293 -0.519792 -0.399689 0.916651 131.135 238.807)" fill="#D9D9D9"/>
<rect width="14.6085" height="16.399" transform="matrix(-0.854293 -0.519792 -0.399689 0.916651 145.113 247.311)" fill="#D9D9D9"/>
<rect width="14.6085" height="16.399" transform="matrix(-0.854293 -0.519792 -0.399689 0.916651 215 266.21)" fill="#D9D9D9"/>
<rect width="14.6085" height="16.399" transform="matrix(-0.854293 -0.519792 -0.399689 0.916651 173.068 240.696)" fill="#D9D9D9"/>
<rect width="14.6085" height="16.399" transform="matrix(-0.854293 -0.519792 -0.399689 0.916651 187.045 249.201)" fill="#D9D9D9"/>
<rect width="14.6085" height="16.399" transform="matrix(-0.854293 -0.519792 -0.399689 0.916651 201.022 257.705)" fill="#D9D9D9"/>
<rect width="14.6085" height="16.399" transform="matrix(-0.854293 -0.519792 -0.399689 0.916651 103.18 198.173)" fill="#D9D9D9"/>
<rect width="14.6085" height="16.399" transform="matrix(-0.854293 -0.519792 -0.399689 0.916651 61.2472 172.66)" fill="#D9D9D9"/>
<rect width="14.6085" height="16.399" transform="matrix(-0.854293 -0.519792 -0.399689 0.916651 75.2247 181.164)" fill="#D9D9D9"/>
<rect width="14.6085" height="16.399" transform="matrix(-0.854293 -0.519792 -0.399689 0.916651 89.2021 189.669)" fill="#D9D9D9"/>
<rect width="14.6085" height="16.399" transform="matrix(-0.854293 -0.519792 -0.399689 0.916651 19.0344 146.975)" fill="#D9D9D9"/>
<rect width="14.6085" height="16.399" transform="matrix(-0.854293 -0.519792 -0.399689 0.916651 33.0118 155.48)" fill="#D9D9D9"/>
<rect width="14.6085" height="16.399" transform="matrix(-0.854293 -0.519792 -0.399689 0.916651 46.9894 163.984)" fill="#D9D9D9"/>
<rect width="14.6085" height="16.399" transform="matrix(-0.854293 -0.519792 -0.399689 0.916651 159.09 232.192)" fill="#D9D9D9"/>
<rect width="14.6085" height="16.399" transform="matrix(-0.854293 -0.519792 -0.399689 0.916651 117.157 206.678)" fill="#D9D9D9"/>
<rect width="14.6085" height="16.399" transform="matrix(-0.854293 -0.519792 -0.399689 0.916651 131.135 215.182)" fill="#D9D9D9"/>
<rect width="14.6085" height="16.399" transform="matrix(-0.854293 -0.519792 -0.399689 0.916651 145.113 223.687)" fill="#D9D9D9"/>
</svg>
